<svg width="108" height="108" viewBox="0 0 108 108" fill="none" xmlns="http://www.w3.org/2000/svg">
<g clip-path="url(#clip0_22426_2837)">
<path d="M36 18H33.75V20.25H36V18Z" fill="#11111B"/>
<path d="M38.25 18H36V20.25H38.25V18Z" fill="#11111B"/>
<path d="M40.5 18H38.25V20.25H40.5V18Z" fill="#11111B"/>
<path d="M42.75 18H40.5V20.25H42.75V18Z" fill="#11111B"/>
<path d="M45 18H42.75V20.25H45V18Z" fill="#11111B"/>
<path d="M47.25 18H45V20.25H47.25V18Z" fill="#11111B"/>
<path d="M49.5 18H47.25V20.25H49.5V18Z" fill="#11111B"/>
<path d="M51.75 18H49.5V20.25H51.75V18Z" fill="#11111B"/>
<path d="M54 18H51.75V20.25H54V18Z" fill="#11111B"/>
<path d="M56.25 18H54V20.25H56.25V18Z" fill="#11111B"/>
<path d="M58.5 18H56.25V20.25H58.5V18Z" fill="#11111B"/>
<path d="M60.75 18H58.5V20.25H60.75V18Z" fill="#11111B"/>
<path d="M63 18H60.75V20.25H63V18Z" fill="#11111B"/>
<path d="M65.25 18H63V20.25H65.25V18Z" fill="#11111B"/>
<path d="M67.5 18H65.25V20.25H67.5V18Z" fill="#11111B"/>
<path d="M69.75 18H67.5V20.25H69.75V18Z" fill="#11111B"/>
<path d="M72 18H69.75V20.25H72V18Z" fill="#11111B"/>
<path d="M74.25 18H72V20.25H74.25V18Z" fill="#11111B"/>
<path d="M33.75 20.25H31.5V22.5H33.75V20.25Z" fill="#11111B"/>
<path d="M36 20.25H33.75V22.5H36V20.25Z" fill="#11111B"/>
<path d="M38.25 20.25H36V22.5H38.25V20.25Z" fill="#CDD6F4"/>
<path d="M40.5 20.25H38.25V22.5H40.5V20.25Z" fill="#CDD6F4"/>
<path d="M42.75 20.25H40.5V22.5H42.75V20.25Z" fill="#CDD6F4"/>
<path d="M45 20.25H42.75V22.5H45V20.25Z" fill="#CDD6F4"/>
<path d="M47.25 20.25H45V22.5H47.25V20.25Z" fill="#CDD6F4"/>
<path d="M49.5 20.25H47.25V22.5H49.5V20.25Z" fill="#CDD6F4"/>
<path d="M51.75 20.25H49.5V22.5H51.75V20.25Z" fill="#CDD6F4"/>
<path d="M54 20.25H51.75V22.5H54V20.25Z" fill="#CDD6F4"/>
<path d="M56.25 20.25H54V22.5H56.25V20.25Z" fill="#CDD6F4"/>
<path d="M58.5 20.25H56.25V22.5H58.5V20.25Z" fill="#CDD6F4"/>
<path d="M60.75 20.25H58.5V22.5H60.75V20.25Z" fill="#CDD6F4"/>
<path d="M63 20.25H60.75V22.5H63V20.25Z" fill="#CDD6F4"/>
<path d="M65.25 20.25H63V22.5H65.25V20.25Z" fill="#CDD6F4"/>
<path d="M67.5 20.25H65.25V22.5H67.5V20.25Z" fill="#CDD6F4"/>
<path d="M69.75 20.25H67.5V22.5H69.75V20.25Z" fill="#CDD6F4"/>
<path d="M72 20.25H69.75V22.5H72V20.25Z" fill="#CDD6F4"/>
<path d="M74.25 20.25H72V22.5H74.25V20.25Z" fill="#11111B"/>
<path d="M76.5 20.25H74.25V22.5H76.5V20.25Z" fill="#11111B"/>
<path d="M31.5 22.5H29.25V24.75H31.5V22.5Z" fill="#11111B"/>
<path d="M33.75 22.5H31.5V24.75H33.75V22.5Z" fill="#11111B"/>
<path d="M36 22.5H33.75V24.75H36V22.5Z" fill="#CDD6F4"/>
<path d="M38.25 22.5H36V24.75H38.25V22.5Z" fill="#CDD6F4"/>
<path d="M40.5 22.5H38.25V24.75H40.5V22.5Z" fill="#CDD6F4"/>
<path d="M42.75 22.5H40.5V24.75H42.75V22.5Z" fill="#CDD6F4"/>
<path d="M45 22.5H42.75V24.75H45V22.5Z" fill="#CDD6F4"/>
<path d="M47.25 22.5H45V24.75H47.25V22.5Z" fill="#CDD6F4"/>
<path d="M49.5 22.5H47.25V24.75H49.5V22.5Z" fill="#CDD6F4"/>
<path d="M51.75 22.5H49.5V24.75H51.75V22.5Z" fill="#CDD6F4"/>
<path d="M54 22.5H51.75V24.75H54V22.5Z" fill="#CDD6F4"/>
<path d="M56.25 22.5H54V24.75H56.25V22.5Z" fill="#CDD6F4"/>
<path d="M58.5 22.5H56.25V24.75H58.5V22.5Z" fill="#CDD6F4"/>
<path d="M60.75 22.5H58.5V24.75H60.75V22.5Z" fill="#CDD6F4"/>
<path d="M63 22.5H60.75V24.75H63V22.5Z" fill="#CDD6F4"/>
<path d="M65.25 22.5H63V24.75H65.25V22.5Z" fill="#CDD6F4"/>
<path d="M67.5 22.5H65.25V24.75H67.5V22.5Z" fill="#CDD6F4"/>
<path d="M69.75 22.5H67.5V24.75H69.75V22.5Z" fill="#CDD6F4"/>
<path d="M72 22.5H69.75V24.75H72V22.5Z" fill="#CDD6F4"/>
<path d="M74.25 22.5H72V24.75H74.25V22.5Z" fill="#CDD6F4"/>
<path d="M76.5 22.5H74.25V24.75H76.5V22.5Z" fill="#11111B"/>
<path d="M78.75 22.5H76.5V24.75H78.75V22.5Z" fill="#11111B"/>
<path d="M31.5 24.75H29.25V27H31.5V24.75Z" fill="#11111B"/>
<path d="M33.75 24.75H31.5V27H33.75V24.75Z" fill="#CDD6F4"/>
<path d="M36 24.75H33.75V27H36V24.75Z" fill="#CDD6F4"/>
<path d="M38.25 24.75H36V27H38.25V24.75Z" fill="#CDD6F4"/>
<path d="M40.5 24.75H38.25V27H40.5V24.75Z" fill="#CDD6F4"/>
<path d="M42.75 24.75H40.5V27H42.75V24.75Z" fill="#F38BA8"/>
<path d="M45 24.75H42.75V27H45V24.75Z" fill="#CDD6F4"/>
<path d="M47.25 24.75H45V27H47.25V24.75Z" fill="#CDD6F4"/>
<path d="M49.5 24.75H47.25V27H49.5V24.75Z" fill="#CDD6F4"/>
<path d="M51.75 24.75H49.5V27H51.75V24.75Z" fill="#CDD6F4"/>
<path d="M54 24.75H51.75V27H54V24.75Z" fill="#CDD6F4"/>
<path d="M56.25 24.75H54V27H56.25V24.75Z" fill="#CDD6F4"/>
<path d="M58.5 24.75H56.25V27H58.5V24.75Z" fill="#CDD6F4"/>
<path d="M60.75 24.75H58.5V27H60.75V24.75Z" fill="#CDD6F4"/>
<path d="M63 24.75H60.75V27H63V24.75Z" fill="#CDD6F4"/>
<path d="M65.25 24.75H63V27H65.25V24.75Z" fill="#CDD6F4"/>
<path d="M67.5 24.75H65.25V27H67.5V24.75Z" fill="#CDD6F4"/>
<path d="M69.75 24.75H67.5V27H69.75V24.75Z" fill="#CDD6F4"/>
<path d="M72 24.75H69.75V27H72V24.75Z" fill="#CDD6F4"/>
<path d="M74.25 24.75H72V27H74.25V24.75Z" fill="#CDD6F4"/>
<path d="M76.5 24.75H74.25V27H76.5V24.75Z" fill="#CDD6F4"/>
<path d="M78.75 24.75H76.5V27H78.75V24.75Z" fill="#11111B"/>
<path d="M31.5 27H29.25V29.25H31.5V27Z" fill="#11111B"/>
<path d="M33.75 27H31.5V29.25H33.75V27Z" fill="#CDD6F4"/>
<path d="M36 27H33.75V29.25H36V27Z" fill="#CDD6F4"/>
<path d="M38.25 27H36V29.25H38.25V27Z" fill="#CDD6F4"/>
<path d="M40.5 27H38.25V29.25H40.5V27Z" fill="#F38BA8"/>
<path d="M42.75 27H40.5V29.25H42.75V27Z" fill="#CDD6F4"/>
<path d="M45 27H42.75V29.25H45V27Z" fill="#F38BA8"/>
<path d="M47.25 27H45V29.25H47.25V27Z" fill="#CDD6F4"/>
<path d="M49.5 27H47.25V29.25H49.5V27Z" fill="#CDD6F4"/>
<path d="M51.75 27H49.5V29.25H51.75V27Z" fill="#CDD6F4"/>
<path d="M54 27H51.75V29.25H54V27Z" fill="#CDD6F4"/>
<path d="M56.25 27H54V29.25H56.25V27Z" fill="#CDD6F4"/>
<path d="M58.5 27H56.25V29.25H58.5V27Z" fill="#CDD6F4"/>
<path d="M60.75 27H58.5V29.25H60.75V27Z" fill="#CDD6F4"/>
<path d="M63 27H60.75V29.25H63V27Z" fill="#CDD6F4"/>
<path d="M65.25 27H63V29.25H65.25V27Z" fill="#CDD6F4"/>
<path d="M67.5 27H65.25V29.25H67.5V27Z" fill="#CDD6F4"/>
<path d="M69.75 27H67.5V29.25H69.75V27Z" fill="#CDD6F4"/>
<path d="M72 27H69.75V29.25H72V27Z" fill="#CDD6F4"/>
<path d="M74.25 27H72V29.25H74.25V27Z" fill="#CDD6F4"/>
<path d="M76.5 27H74.25V29.25H76.5V27Z" fill="#CDD6F4"/>
<path d="M78.75 27H76.5V29.25H78.75V27Z" fill="#11111B"/>
<path d="M31.5 29.25H29.25V31.5H31.5V29.25Z" fill="#11111B"/>
<path d="M33.75 29.25H31.5V31.5H33.75V29.25Z" fill="#CDD6F4"/>
<path d="M36 29.25H33.75V31.5H36V29.25Z" fill="#CDD6F4"/>
<path d="M38.25 29.25H36V31.5H38.25V29.25Z" fill="#CDD6F4"/>
<path d="M40.5 29.25H38.25V31.5H40.5V29.25Z" fill="#F38BA8"/>
<path d="M42.75 29.25H40.5V31.5H42.75V29.25Z" fill="#CDD6F4"/>
<path d="M45 29.25H42.75V31.5H45V29.25Z" fill="#F38BA8"/>
<path d="M47.25 29.25H45V31.5H47.25V29.25Z" fill="#CDD6F4"/>
<path d="M49.5 29.25H47.25V31.5H49.5V29.25Z" fill="#CDD6F4"/>
<path d="M51.75 29.25H49.5V31.5H51.75V29.25Z" fill="#CDD6F4"/>
<path d="M54 29.25H51.75V31.5H54V29.25Z" fill="#CDD6F4"/>
<path d="M56.25 29.25H54V31.5H56.25V29.25Z" fill="#CDD6F4"/>
<path d="M58.5 29.25H56.25V31.5H58.5V29.25Z" fill="#CDD6F4"/>
<path d="M60.75 29.25H58.5V31.5H60.75V29.25Z" fill="#CDD6F4"/>
<path d="M63 29.25H60.75V31.5H63V29.25Z" fill="#CDD6F4"/>
<path d="M65.25 29.25H63V31.5H65.25V29.25Z" fill="#CDD6F4"/>
<path d="M67.5 29.25H65.25V31.5H67.5V29.25Z" fill="#CDD6F4"/>
<path d="M69.75 29.25H67.5V31.5H69.75V29.25Z" fill="#CDD6F4"/>
<path d="M72 29.25H69.75V31.5H72V29.25Z" fill="#CDD6F4"/>
<path d="M74.25 29.25H72V31.5H74.25V29.25Z" fill="#CDD6F4"/>
<path d="M76.5 29.25H74.25V31.5H76.5V29.25Z" fill="#CDD6F4"/>
<path d="M78.75 29.25H76.5V31.5H78.75V29.25Z" fill="#11111B"/>
<path d="M31.5 31.5H29.25V33.75H31.5V31.5Z" fill="#11111B"/>
<path d="M33.75 31.5H31.5V33.75H33.75V31.5Z" fill="#CDD6F4"/>
<path d="M36 31.5H33.75V33.75H36V31.5Z" fill="#CDD6F4"/>
<path d="M38.25 31.5H36V33.75H38.25V31.5Z" fill="#CDD6F4"/>
<path d="M40.5 31.5H38.25V33.75H40.5V31.5Z" fill="#F38BA8"/>
<path d="M42.75 31.5H40.5V33.75H42.75V31.5Z" fill="#F38BA8"/>
<path d="M45 31.5H42.75V33.75H45V31.5Z" fill="#F38BA8"/>
<path d="M47.25 31.5H45V33.75H47.25V31.5Z" fill="#CDD6F4"/>
<path d="M49.5 31.5H47.25V33.75H49.5V31.5Z" fill="#CDD6F4"/>
<path d="M51.75 31.5H49.5V33.75H51.75V31.5Z" fill="#CDD6F4"/>
<path d="M54 31.5H51.75V33.75H54V31.5Z" fill="#CDD6F4"/>
<path d="M56.25 31.5H54V33.75H56.25V31.5Z" fill="#CDD6F4"/>
<path d="M58.5 31.5H56.25V33.75H58.5V31.5Z" fill="#CDD6F4"/>
<path d="M60.75 31.5H58.5V33.75H60.75V31.5Z" fill="#CDD6F4"/>
<path d="M63 31.5H60.75V33.75H63V31.5Z" fill="#CDD6F4"/>
<path d="M65.25 31.5H63V33.75H65.25V31.5Z" fill="#CDD6F4"/>
<path d="M67.5 31.5H65.25V33.75H67.5V31.5Z" fill="#CDD6F4"/>
<path d="M69.75 31.5H67.5V33.75H69.75V31.5Z" fill="#CDD6F4"/>
<path d="M72 31.5H69.75V33.75H72V31.5Z" fill="#CDD6F4"/>
<path d="M74.25 31.5H72V33.75H74.25V31.5Z" fill="#CDD6F4"/>
<path d="M76.5 31.5H74.25V33.75H76.5V31.5Z" fill="#CDD6F4"/>
<path d="M78.75 31.5H76.5V33.75H78.75V31.5Z" fill="#11111B"/>
<path d="M31.5 33.75H29.25V36H31.5V33.75Z" fill="#11111B"/>
<path d="M33.75 33.75H31.5V36H33.75V33.75Z" fill="#CDD6F4"/>
<path d="M36 33.75H33.75V36H36V33.75Z" fill="#CDD6F4"/>
<path d="M38.25 33.75H36V36H38.25V33.75Z" fill="#CDD6F4"/>
<path d="M40.5 33.75H38.25V36H40.5V33.75Z" fill="#F38BA8"/>
<path d="M42.75 33.75H40.5V36H42.75V33.75Z" fill="#CDD6F4"/>
<path d="M45 33.75H42.75V36H45V33.75Z" fill="#F38BA8"/>
<path d="M47.25 33.75H45V36H47.25V33.75Z" fill="#CDD6F4"/>
<path d="M49.5 33.75H47.25V36H49.5V33.75Z" fill="#CDD6F4"/>
<path d="M51.75 33.75H49.5V36H51.75V33.75Z" fill="#CDD6F4"/>
<path d="M54 33.75H51.75V36H54V33.75Z" fill="#CDD6F4"/>
<path d="M56.25 33.75H54V36H56.25V33.75Z" fill="#CDD6F4"/>
<path d="M58.5 33.75H56.25V36H58.5V33.75Z" fill="#CDD6F4"/>
<path d="M60.75 33.75H58.5V36H60.75V33.75Z" fill="#CDD6F4"/>
<path d="M63 33.75H60.75V36H63V33.75Z" fill="#CDD6F4"/>
<path d="M65.25 33.75H63V36H65.25V33.75Z" fill="#CDD6F4"/>
<path d="M67.5 33.75H65.25V36H67.5V33.75Z" fill="#CDD6F4"/>
<path d="M69.75 33.75H67.5V36H69.75V33.75Z" fill="#CDD6F4"/>
<path d="M72 33.75H69.75V36H72V33.75Z" fill="#CDD6F4"/>
<path d="M74.25 33.75H72V36H74.25V33.75Z" fill="#CDD6F4"/>
<path d="M76.5 33.75H74.25V36H76.5V33.75Z" fill="#CDD6F4"/>
<path d="M78.75 33.75H76.5V36H78.75V33.75Z" fill="#11111B"/>
<path d="M31.5 36H29.25V38.25H31.5V36Z" fill="#11111B"/>
<path d="M33.75 36H31.5V38.25H33.75V36Z" fill="#CDD6F4"/>
<path d="M36 36H33.75V38.25H36V36Z" fill="#CDD6F4"/>
<path d="M38.25 36H36V38.25H38.25V36Z" fill="#CDD6F4"/>
<path d="M40.5 36H38.25V38.25H40.5V36Z" fill="#CDD6F4"/>
<path d="M42.75 36H40.5V38.25H42.75V36Z" fill="#CDD6F4"/>
<path d="M45 36H42.75V38.25H45V36Z" fill="#CDD6F4"/>
<path d="M47.25 36H45V38.25H47.25V36Z" fill="#CDD6F4"/>
<path d="M49.5 36H47.25V38.25H49.5V36Z" fill="#CDD6F4"/>
<path d="M51.75 36H49.5V38.25H51.75V36Z" fill="#CDD6F4"/>
<path d="M54 36H51.75V38.25H54V36Z" fill="#CDD6F4"/>
<path d="M56.25 36H54V38.25H56.25V36Z" fill="#CDD6F4"/>
<path d="M58.5 36H56.25V38.25H58.5V36Z" fill="#CDD6F4"/>
<path d="M60.75 36H58.5V38.25H60.75V36Z" fill="#CDD6F4"/>
<path d="M63 36H60.75V38.25H63V36Z" fill="#CDD6F4"/>
<path d="M65.25 36H63V38.25H65.25V36Z" fill="#CDD6F4"/>
<path d="M67.5 36H65.25V38.25H67.5V36Z" fill="#CDD6F4"/>
<path d="M69.75 36H67.5V38.25H69.75V36Z" fill="#CDD6F4"/>
<path d="M72 36H69.75V38.25H72V36Z" fill="#CDD6F4"/>
<path d="M74.25 36H72V38.25H74.25V36Z" fill="#CDD6F4"/>
<path d="M76.5 36H74.25V38.25H76.5V36Z" fill="#CDD6F4"/>
<path d="M78.75 36H76.5V38.25H78.75V36Z" fill="#11111B"/>
<path d="M31.5 38.25H29.25V40.5H31.5V38.25Z" fill="#11111B"/>
<path d="M33.75 38.25H31.5V40.5H33.75V38.25Z" fill="#CDD6F4"/>
<path d="M36 38.25H33.75V40.5H36V38.25Z" fill="#CDD6F4"/>
<path d="M38.25 38.25H36V40.5H38.25V38.25Z" fill="#CDD6F4"/>
<path d="M40.5 38.25H38.25V40.5H40.5V38.25Z" fill="#CDD6F4"/>
<path d="M42.75 38.25H40.5V40.5H42.75V38.25Z" fill="#CDD6F4"/>
<path d="M45 38.25H42.75V40.5H45V38.25Z" fill="#CDD6F4"/>
<path d="M47.25 38.25H45V40.5H47.25V38.25Z" fill="#CDD6F4"/>
<path d="M49.5 38.25H47.25V40.5H49.5V38.25Z" fill="#CDD6F4"/>
<path d="M51.75 38.25H49.5V40.5H51.75V38.25Z" fill="#CDD6F4"/>
<path d="M54 38.25H51.75V40.5H54V38.25Z" fill="#F38BA8"/>
<path d="M56.25 38.25H54V40.5H56.25V38.25Z" fill="#F38BA8"/>
<path d="M58.5 38.25H56.25V40.5H58.5V38.25Z" fill="#CDD6F4"/>
<path d="M60.75 38.25H58.5V40.5H60.75V38.25Z" fill="#CDD6F4"/>
<path d="M63 38.25H60.75V40.5H63V38.25Z" fill="#CDD6F4"/>
<path d="M65.25 38.25H63V40.5H65.25V38.25Z" fill="#CDD6F4"/>
<path d="M67.5 38.25H65.25V40.5H67.5V38.25Z" fill="#CDD6F4"/>
<path d="M69.75 38.25H67.5V40.5H69.75V38.25Z" fill="#CDD6F4"/>
<path d="M72 38.25H69.75V40.5H72V38.25Z" fill="#CDD6F4"/>
<path d="M74.25 38.25H72V40.5H74.25V38.25Z" fill="#CDD6F4"/>
<path d="M76.5 38.25H74.25V40.5H76.5V38.25Z" fill="#CDD6F4"/>
<path d="M78.75 38.25H76.5V40.5H78.75V38.25Z" fill="#11111B"/>
<path d="M31.5 40.5H29.25V42.75H31.5V40.5Z" fill="#11111B"/>
<path d="M33.75 40.5H31.5V42.75H33.75V40.5Z" fill="#CDD6F4"/>
<path d="M36 40.5H33.75V42.75H36V40.5Z" fill="#CDD6F4"/>
<path d="M38.25 40.5H36V42.75H38.25V40.5Z" fill="#CDD6F4"/>
<path d="M40.5 40.5H38.25V42.75H40.5V40.5Z" fill="#CDD6F4"/>
<path d="M42.75 40.5H40.5V42.75H42.75V40.5Z" fill="#CDD6F4"/>
<path d="M45 40.5H42.75V42.75H45V40.5Z" fill="#CDD6F4"/>
<path d="M47.25 40.5H45V42.75H47.25V40.5Z" fill="#CDD6F4"/>
<path d="M49.5 40.5H47.25V42.75H49.5V40.5Z" fill="#CDD6F4"/>
<path d="M51.75 40.5H49.5V42.75H51.75V40.5Z" fill="#CDD6F4"/>
<path d="M54 40.5H51.75V42.75H54V40.5Z" fill="#F38BA8"/>
<path d="M56.25 40.5H54V42.75H56.25V40.5Z" fill="#F38BA8"/>
<path d="M58.5 40.5H56.25V42.75H58.5V40.5Z" fill="#CDD6F4"/>
<path d="M60.75 40.5H58.5V42.75H60.75V40.5Z" fill="#CDD6F4"/>
<path d="M63 40.5H60.75V42.75H63V40.5Z" fill="#CDD6F4"/>
<path d="M65.25 40.5H63V42.75H65.25V40.5Z" fill="#CDD6F4"/>
<path d="M67.5 40.5H65.25V42.75H67.5V40.5Z" fill="#CDD6F4"/>
<path d="M69.75 40.5H67.5V42.75H69.75V40.5Z" fill="#CDD6F4"/>
<path d="M72 40.5H69.75V42.75H72V40.5Z" fill="#CDD6F4"/>
<path d="M74.25 40.5H72V42.75H74.25V40.5Z" fill="#CDD6F4"/>
<path d="M76.5 40.5H74.25V42.75H76.5V40.5Z" fill="#CDD6F4"/>
<path d="M78.75 40.5H76.5V42.75H78.75V40.5Z" fill="#11111B"/>
<path d="M31.5 42.75H29.25V45H31.5V42.75Z" fill="#11111B"/>
<path d="M33.75 42.75H31.5V45H33.75V42.75Z" fill="#CDD6F4"/>
<path d="M36 42.75H33.75V45H36V42.75Z" fill="#CDD6F4"/>
<path d="M38.25 42.75H36V45H38.25V42.75Z" fill="#CDD6F4"/>
<path d="M40.5 42.75H38.25V45H40.5V42.75Z" fill="#CDD6F4"/>
<path d="M42.75 42.75H40.5V45H42.75V42.75Z" fill="#CDD6F4"/>
<path d="M45 42.75H42.75V45H45V42.75Z" fill="#CDD6F4"/>
<path d="M47.25 42.75H45V45H47.25V42.75Z" fill="#CDD6F4"/>
<path d="M49.5 42.75H47.25V45H49.5V42.75Z" fill="#CDD6F4"/>
<path d="M51.75 42.75H49.5V45H51.75V42.75Z" fill="#F38BA8"/>
<path d="M54 42.75H51.75V45H54V42.75Z" fill="#F38BA8"/>
<path d="M56.25 42.75H54V45H56.25V42.75Z" fill="#F38BA8"/>
<path d="M58.5 42.75H56.25V45H58.5V42.75Z" fill="#F38BA8"/>
<path d="M60.75 42.75H58.5V45H60.75V42.75Z" fill="#CDD6F4"/>
<path d="M63 42.75H60.75V45H63V42.75Z" fill="#CDD6F4"/>
<path d="M65.25 42.75H63V45H65.25V42.75Z" fill="#CDD6F4"/>
<path d="M67.5 42.75H65.25V45H67.5V42.75Z" fill="#CDD6F4"/>
<path d="M69.75 42.75H67.5V45H69.75V42.75Z" fill="#CDD6F4"/>
<path d="M72 42.75H69.75V45H72V42.75Z" fill="#CDD6F4"/>
<path d="M74.25 42.75H72V45H74.25V42.75Z" fill="#CDD6F4"/>
<path d="M76.5 42.75H74.25V45H76.5V42.75Z" fill="#CDD6F4"/>
<path d="M78.75 42.75H76.5V45H78.75V42.75Z" fill="#11111B"/>
<path d="M31.5 45H29.25V47.25H31.5V45Z" fill="#11111B"/>
<path d="M33.75 45H31.5V47.25H33.75V45Z" fill="#CDD6F4"/>
<path d="M36 45H33.75V47.25H36V45Z" fill="#CDD6F4"/>
<path d="M38.25 45H36V47.25H38.25V45Z" fill="#CDD6F4"/>
<path d="M40.5 45H38.25V47.25H40.5V45Z" fill="#CDD6F4"/>
<path d="M42.75 45H40.5V47.25H42.75V45Z" fill="#CDD6F4"/>
<path d="M45 45H42.75V47.25H45V45Z" fill="#CDD6F4"/>
<path d="M47.25 45H45V47.25H47.25V45Z" fill="#CDD6F4"/>
<path d="M49.5 45H47.25V47.25H49.5V45Z" fill="#CDD6F4"/>
<path d="M51.75 45H49.5V47.25H51.75V45Z" fill="#F38BA8"/>
<path d="M54 45H51.75V47.25H54V45Z" fill="#F38BA8"/>
<path d="M56.25 45H54V47.25H56.25V45Z" fill="#F38BA8"/>
<path d="M58.5 45H56.25V47.25H58.5V45Z" fill="#F38BA8"/>
<path d="M60.75 45H58.5V47.25H60.75V45Z" fill="#CDD6F4"/>
<path d="M63 45H60.75V47.25H63V45Z" fill="#CDD6F4"/>
<path d="M65.25 45H63V47.25H65.25V45Z" fill="#CDD6F4"/>
<path d="M67.5 45H65.25V47.25H67.5V45Z" fill="#CDD6F4"/>
<path d="M69.75 45H67.5V47.25H69.75V45Z" fill="#CDD6F4"/>
<path d="M72 45H69.75V47.25H72V45Z" fill="#CDD6F4"/>
<path d="M74.25 45H72V47.25H74.25V45Z" fill="#CDD6F4"/>
<path d="M76.5 45H74.25V47.25H76.5V45Z" fill="#CDD6F4"/>
<path d="M78.75 45H76.5V47.25H78.75V45Z" fill="#11111B"/>
<path d="M31.5 47.25H29.25V49.5H31.5V47.25Z" fill="#11111B"/>
<path d="M33.75 47.25H31.5V49.5H33.75V47.25Z" fill="#CDD6F4"/>
<path d="M36 47.25H33.75V49.5H36V47.25Z" fill="#CDD6F4"/>
<path d="M38.25 47.25H36V49.5H38.25V47.25Z" fill="#CDD6F4"/>
<path d="M40.5 47.25H38.25V49.5H40.5V47.25Z" fill="#CDD6F4"/>
<path d="M42.75 47.25H40.5V49.5H42.75V47.25Z" fill="#CDD6F4"/>
<path d="M45 47.25H42.75V49.5H45V47.25Z" fill="#CDD6F4"/>
<path d="M47.25 47.25H45V49.5H47.25V47.25Z" fill="#CDD6F4"/>
<path d="M49.5 47.25H47.25V49.5H49.5V47.25Z" fill="#F38BA8"/>
<path d="M51.75 47.25H49.5V49.5H51.75V47.25Z" fill="#F38BA8"/>
<path d="M54 47.25H51.75V49.5H54V47.25Z" fill="#F38BA8"/>
<path d="M56.25 47.25H54V49.5H56.25V47.25Z" fill="#F38BA8"/>
<path d="M58.5 47.25H56.25V49.5H58.5V47.25Z" fill="#F38BA8"/>
<path d="M60.75 47.25H58.5V49.5H60.75V47.25Z" fill="#F38BA8"/>
<path d="M63 47.25H60.75V49.5H63V47.25Z" fill="#CDD6F4"/>
<path d="M65.25 47.25H63V49.5H65.25V47.25Z" fill="#CDD6F4"/>
<path d="M67.5 47.25H65.25V49.5H67.5V47.25Z" fill="#CDD6F4"/>
<path d="M69.75 47.25H67.5V49.5H69.75V47.25Z" fill="#CDD6F4"/>
<path d="M72 47.25H69.75V49.5H72V47.25Z" fill="#CDD6F4"/>
<path d="M74.25 47.25H72V49.5H74.25V47.25Z" fill="#CDD6F4"/>
<path d="M76.5 47.25H74.25V49.5H76.5V47.25Z" fill="#CDD6F4"/>
<path d="M78.75 47.25H76.5V49.5H78.75V47.25Z" fill="#11111B"/>
<path d="M31.5 49.5H29.25V51.75H31.5V49.5Z" fill="#11111B"/>
<path d="M33.75 49.5H31.5V51.75H33.75V49.5Z" fill="#CDD6F4"/>
<path d="M36 49.5H33.75V51.75H36V49.5Z" fill="#CDD6F4"/>
<path d="M38.25 49.5H36V51.75H38.25V49.5Z" fill="#CDD6F4"/>
<path d="M40.5 49.5H38.25V51.75H40.5V49.5Z" fill="#CDD6F4"/>
<path d="M42.75 49.5H40.5V51.75H42.75V49.5Z" fill="#CDD6F4"/>
<path d="M45 49.5H42.75V51.75H45V49.5Z" fill="#CDD6F4"/>
<path d="M47.25 49.5H45V51.75H47.25V49.5Z" fill="#CDD6F4"/>
<path d="M49.5 49.5H47.25V51.75H49.5V49.5Z" fill="#F38BA8"/>
<path d="M51.75 49.5H49.5V51.75H51.75V49.5Z" fill="#F38BA8"/>
<path d="M54 49.5H51.75V51.75H54V49.5Z" fill="#F38BA8"/>
<path d="M56.25 49.5H54V51.75H56.25V49.5Z" fill="#F38BA8"/>
<path d="M58.5 49.5H56.25V51.75H58.5V49.5Z" fill="#F38BA8"/>
<path d="M60.75 49.5H58.5V51.75H60.75V49.5Z" fill="#F38BA8"/>
<path d="M63 49.5H60.75V51.75H63V49.5Z" fill="#CDD6F4"/>
<path d="M65.25 49.5H63V51.75H65.25V49.5Z" fill="#CDD6F4"/>
<path d="M67.5 49.5H65.25V51.75H67.5V49.5Z" fill="#CDD6F4"/>
<path d="M69.75 49.5H67.5V51.75H69.75V49.5Z" fill="#CDD6F4"/>
<path d="M72 49.5H69.75V51.75H72V49.5Z" fill="#CDD6F4"/>
<path d="M74.25 49.5H72V51.75H74.25V49.5Z" fill="#CDD6F4"/>
<path d="M76.5 49.5H74.25V51.75H76.5V49.5Z" fill="#CDD6F4"/>
<path d="M78.75 49.5H76.5V51.75H78.75V49.5Z" fill="#11111B"/>
<path d="M31.5 51.75H29.25V54H31.5V51.75Z" fill="#11111B"/>
<path d="M33.75 51.75H31.5V54H33.75V51.75Z" fill="#CDD6F4"/>
<path d="M36 51.75H33.75V54H36V51.75Z" fill="#CDD6F4"/>
<path d="M38.25 51.75H36V54H38.25V51.75Z" fill="#CDD6F4"/>
<path d="M40.5 51.75H38.25V54H40.5V51.75Z" fill="#CDD6F4"/>
<path d="M42.75 51.75H40.5V54H42.75V51.75Z" fill="#CDD6F4"/>
<path d="M45 51.75H42.75V54H45V51.75Z" fill="#CDD6F4"/>
<path d="M47.25 51.75H45V54H47.25V51.75Z" fill="#F38BA8"/>
<path d="M49.5 51.75H47.25V54H49.5V51.75Z" fill="#F38BA8"/>
<path d="M51.75 51.75H49.5V54H51.75V51.75Z" fill="#F38BA8"/>
<path d="M54 51.75H51.75V54H54V51.75Z" fill="#F38BA8"/>
<path d="M56.25 51.75H54V54H56.25V51.75Z" fill="#F38BA8"/>
<path d="M58.5 51.75H56.25V54H58.5V51.75Z" fill="#F38BA8"/>
<path d="M60.75 51.75H58.5V54H60.75V51.75Z" fill="#F38BA8"/>
<path d="M63 51.75H60.75V54H63V51.75Z" fill="#F38BA8"/>
<path d="M65.25 51.75H63V54H65.25V51.75Z" fill="#CDD6F4"/>
<path d="M67.5 51.75H65.25V54H67.5V51.75Z" fill="#CDD6F4"/>
<path d="M69.75 51.75H67.5V54H69.75V51.75Z" fill="#CDD6F4"/>
<path d="M72 51.75H69.75V54H72V51.75Z" fill="#CDD6F4"/>
<path d="M74.25 51.75H72V54H74.25V51.75Z" fill="#CDD6F4"/>
<path d="M76.5 51.75H74.25V54H76.5V51.75Z" fill="#CDD6F4"/>
<path d="M78.75 51.75H76.5V54H78.75V51.75Z" fill="#11111B"/>
<path d="M31.5 54H29.25V56.25H31.5V54Z" fill="#11111B"/>
<path d="M33.75 54H31.5V56.25H33.75V54Z" fill="#CDD6F4"/>
<path d="M36 54H33.75V56.25H36V54Z" fill="#CDD6F4"/>
<path d="M38.25 54H36V56.25H38.25V54Z" fill="#CDD6F4"/>
<path d="M40.5 54H38.25V56.25H40.5V54Z" fill="#CDD6F4"/>
<path d="M42.75 54H40.5V56.25H42.75V54Z" fill="#CDD6F4"/>
<path d="M45 54H42.75V56.25H45V54Z" fill="#CDD6F4"/>
<path d="M47.25 54H45V56.25H47.25V54Z" fill="#F38BA8"/>
<path d="M49.5 54H47.25V56.25H49.5V54Z" fill="#F38BA8"/>
<path d="M51.75 54H49.5V56.25H51.75V54Z" fill="#F38BA8"/>
<path d="M54 54H51.75V56.25H54V54Z" fill="#F38BA8"/>
<path d="M56.25 54H54V56.25H56.25V54Z" fill="#F38BA8"/>
<path d="M58.5 54H56.25V56.25H58.5V54Z" fill="#F38BA8"/>
<path d="M60.75 54H58.5V56.25H60.75V54Z" fill="#F38BA8"/>
<path d="M63 54H60.75V56.25H63V54Z" fill="#F38BA8"/>
<path d="M65.25 54H63V56.25H65.25V54Z" fill="#CDD6F4"/>
<path d="M67.5 54H65.25V56.25H67.5V54Z" fill="#CDD6F4"/>
<path d="M69.75 54H67.5V56.25H69.75V54Z" fill="#CDD6F4"/>
<path d="M72 54H69.75V56.25H72V54Z" fill="#CDD6F4"/>
<path d="M74.25 54H72V56.25H74.25V54Z" fill="#CDD6F4"/>
<path d="M76.5 54H74.25V56.25H76.5V54Z" fill="#CDD6F4"/>
<path d="M78.75 54H76.5V56.25H78.75V54Z" fill="#11111B"/>
<path d="M31.5 56.25H29.25V58.5H31.5V56.25Z" fill="#11111B"/>
<path d="M33.75 56.25H31.5V58.5H33.75V56.25Z" fill="#CDD6F4"/>
<path d="M36 56.25H33.75V58.5H36V56.25Z" fill="#CDD6F4"/>
<path d="M38.25 56.25H36V58.5H38.25V56.25Z" fill="#CDD6F4"/>
<path d="M40.5 56.25H38.25V58.5H40.5V56.25Z" fill="#CDD6F4"/>
<path d="M42.75 56.25H40.5V58.5H42.75V56.25Z" fill="#CDD6F4"/>
<path d="M45 56.25H42.75V58.5H45V56.25Z" fill="#CDD6F4"/>
<path d="M47.25 56.25H45V58.5H47.25V56.25Z" fill="#CDD6F4"/>
<path d="M49.5 56.25H47.25V58.5H49.5V56.25Z" fill="#F38BA8"/>
<path d="M51.75 56.25H49.5V58.5H51.75V56.25Z" fill="#F38BA8"/>
<path d="M54 56.25H51.75V58.5H54V56.25Z" fill="#F38BA8"/>
<path d="M56.25 56.25H54V58.5H56.25V56.25Z" fill="#F38BA8"/>
<path d="M58.5 56.25H56.25V58.5H58.5V56.25Z" fill="#F38BA8"/>
<path d="M60.75 56.25H58.5V58.5H60.75V56.25Z" fill="#F38BA8"/>
<path d="M63 56.25H60.75V58.5H63V56.25Z" fill="#CDD6F4"/>
<path d="M65.25 56.25H63V58.5H65.25V56.25Z" fill="#CDD6F4"/>
<path d="M67.5 56.25H65.25V58.5H67.5V56.25Z" fill="#CDD6F4"/>
<path d="M69.75 56.25H67.5V58.5H69.75V56.25Z" fill="#CDD6F4"/>
<path d="M72 56.25H69.75V58.5H72V56.25Z" fill="#CDD6F4"/>
<path d="M74.25 56.25H72V58.5H74.25V56.25Z" fill="#CDD6F4"/>
<path d="M76.5 56.25H74.25V58.5H76.5V56.25Z" fill="#CDD6F4"/>
<path d="M78.75 56.25H76.5V58.5H78.75V56.25Z" fill="#11111B"/>
<path d="M31.5 58.5H29.25V60.75H31.5V58.5Z" fill="#11111B"/>
<path d="M33.75 58.5H31.5V60.75H33.75V58.5Z" fill="#CDD6F4"/>
<path d="M36 58.5H33.75V60.75H36V58.5Z" fill="#CDD6F4"/>
<path d="M38.25 58.5H36V60.75H38.25V58.5Z" fill="#CDD6F4"/>
<path d="M40.5 58.5H38.25V60.75H40.5V58.5Z" fill="#CDD6F4"/>
<path d="M42.75 58.5H40.5V60.75H42.75V58.5Z" fill="#CDD6F4"/>
<path d="M45 58.5H42.75V60.75H45V58.5Z" fill="#CDD6F4"/>
<path d="M47.25 58.5H45V60.75H47.25V58.5Z" fill="#CDD6F4"/>
<path d="M49.5 58.5H47.25V60.75H49.5V58.5Z" fill="#F38BA8"/>
<path d="M51.75 58.5H49.5V60.75H51.75V58.5Z" fill="#F38BA8"/>
<path d="M54 58.5H51.75V60.75H54V58.5Z" fill="#F38BA8"/>
<path d="M56.25 58.5H54V60.75H56.25V58.5Z" fill="#F38BA8"/>
<path d="M58.5 58.5H56.25V60.75H58.5V58.5Z" fill="#F38BA8"/>
<path d="M60.75 58.5H58.5V60.75H60.75V58.5Z" fill="#F38BA8"/>
<path d="M63 58.5H60.75V60.75H63V58.5Z" fill="#CDD6F4"/>
<path d="M65.25 58.5H63V60.75H65.25V58.5Z" fill="#CDD6F4"/>
<path d="M67.5 58.5H65.25V60.75H67.5V58.5Z" fill="#CDD6F4"/>
<path d="M69.75 58.5H67.5V60.75H69.75V58.5Z" fill="#CDD6F4"/>
<path d="M72 58.5H69.75V60.75H72V58.5Z" fill="#CDD6F4"/>
<path d="M74.25 58.5H72V60.75H74.25V58.5Z" fill="#CDD6F4"/>
<path d="M76.5 58.5H74.25V60.75H76.5V58.5Z" fill="#CDD6F4"/>
<path d="M78.75 58.5H76.5V60.75H78.75V58.5Z" fill="#11111B"/>
<path d="M31.5 60.75H29.25V63H31.5V60.75Z" fill="#11111B"/>
<path d="M33.75 60.75H31.5V63H33.75V60.75Z" fill="#CDD6F4"/>
<path d="M36 60.75H33.75V63H36V60.75Z" fill="#CDD6F4"/>
<path d="M38.25 60.75H36V63H38.25V60.75Z" fill="#CDD6F4"/>
<path d="M40.5 60.75H38.25V63H40.5V60.75Z" fill="#CDD6F4"/>
<path d="M42.75 60.75H40.5V63H42.75V60.75Z" fill="#CDD6F4"/>
<path d="M45 60.75H42.75V63H45V60.75Z" fill="#CDD6F4"/>
<path d="M47.25 60.75H45V63H47.25V60.75Z" fill="#CDD6F4"/>
<path d="M49.5 60.75H47.25V63H49.5V60.75Z" fill="#CDD6F4"/>
<path d="M51.75 60.75H49.5V63H51.75V60.75Z" fill="#F38BA8"/>
<path d="M54 60.75H51.75V63H54V60.75Z" fill="#F38BA8"/>
<path d="M56.25 60.75H54V63H56.25V60.75Z" fill="#F38BA8"/>
<path d="M58.5 60.75H56.25V63H58.5V60.75Z" fill="#F38BA8"/>
<path d="M60.75 60.75H58.5V63H60.75V60.75Z" fill="#CDD6F4"/>
<path d="M63 60.75H60.75V63H63V60.75Z" fill="#CDD6F4"/>
<path d="M65.25 60.75H63V63H65.25V60.75Z" fill="#CDD6F4"/>
<path d="M67.5 60.75H65.25V63H67.5V60.75Z" fill="#CDD6F4"/>
<path d="M69.75 60.75H67.5V63H69.75V60.75Z" fill="#CDD6F4"/>
<path d="M72 60.75H69.75V63H72V60.75Z" fill="#CDD6F4"/>
<path d="M74.25 60.75H72V63H74.25V60.75Z" fill="#CDD6F4"/>
<path d="M76.5 60.75H74.25V63H76.5V60.75Z" fill="#CDD6F4"/>
<path d="M78.75 60.75H76.5V63H78.75V60.75Z" fill="#11111B"/>
<path d="M31.5 63H29.25V65.25H31.5V63Z" fill="#11111B"/>
<path d="M33.75 63H31.5V65.25H33.75V63Z" fill="#CDD6F4"/>
<path d="M36 63H33.75V65.25H36V63Z" fill="#CDD6F4"/>
<path d="M38.25 63H36V65.25H38.25V63Z" fill="#CDD6F4"/>
<path d="M40.5 63H38.25V65.25H40.5V63Z" fill="#CDD6F4"/>
<path d="M42.75 63H40.5V65.25H42.75V63Z" fill="#CDD6F4"/>
<path d="M45 63H42.75V65.25H45V63Z" fill="#CDD6F4"/>
<path d="M47.25 63H45V65.25H47.25V63Z" fill="#CDD6F4"/>
<path d="M49.5 63H47.25V65.25H49.5V63Z" fill="#CDD6F4"/>
<path d="M51.75 63H49.5V65.25H51.75V63Z" fill="#F38BA8"/>
<path d="M54 63H51.75V65.25H54V63Z" fill="#F38BA8"/>
<path d="M56.25 63H54V65.25H56.25V63Z" fill="#F38BA8"/>
<path d="M58.5 63H56.25V65.25H58.5V63Z" fill="#F38BA8"/>
<path d="M60.75 63H58.5V65.25H60.75V63Z" fill="#CDD6F4"/>
<path d="M63 63H60.75V65.25H63V63Z" fill="#CDD6F4"/>
<path d="M65.25 63H63V65.25H65.25V63Z" fill="#CDD6F4"/>
<path d="M67.5 63H65.25V65.25H67.5V63Z" fill="#CDD6F4"/>
<path d="M69.75 63H67.5V65.25H69.75V63Z" fill="#CDD6F4"/>
<path d="M72 63H69.75V65.25H72V63Z" fill="#CDD6F4"/>
<path d="M74.25 63H72V65.25H74.25V63Z" fill="#CDD6F4"/>
<path d="M76.5 63H74.25V65.25H76.5V63Z" fill="#CDD6F4"/>
<path d="M78.75 63H76.5V65.25H78.75V63Z" fill="#11111B"/>
<path d="M31.5 65.25H29.25V67.5H31.5V65.25Z" fill="#11111B"/>
<path d="M33.75 65.25H31.5V67.5H33.75V65.25Z" fill="#CDD6F4"/>
<path d="M36 65.25H33.75V67.5H36V65.25Z" fill="#CDD6F4"/>
<path d="M38.25 65.25H36V67.5H38.25V65.25Z" fill="#CDD6F4"/>
<path d="M40.5 65.25H38.25V67.5H40.5V65.25Z" fill="#CDD6F4"/>
<path d="M42.75 65.25H40.5V67.5H42.75V65.25Z" fill="#CDD6F4"/>
<path d="M45 65.25H42.75V67.5H45V65.25Z" fill="#CDD6F4"/>
<path d="M47.25 65.25H45V67.5H47.25V65.25Z" fill="#CDD6F4"/>
<path d="M49.5 65.25H47.25V67.5H49.5V65.25Z" fill="#CDD6F4"/>
<path d="M51.75 65.25H49.5V67.5H51.75V65.25Z" fill="#CDD6F4"/>
<path d="M54 65.25H51.75V67.5H54V65.25Z" fill="#F38BA8"/>
<path d="M56.25 65.25H54V67.5H56.25V65.25Z" fill="#F38BA8"/>
<path d="M58.5 65.25H56.25V67.5H58.5V65.25Z" fill="#CDD6F4"/>
<path d="M60.75 65.25H58.5V67.5H60.75V65.25Z" fill="#CDD6F4"/>
<path d="M63 65.25H60.75V67.5H63V65.25Z" fill="#CDD6F4"/>
<path d="M65.25 65.25H63V67.5H65.25V65.25Z" fill="#CDD6F4"/>
<path d="M67.5 65.25H65.25V67.5H67.5V65.25Z" fill="#CDD6F4"/>
<path d="M69.75 65.25H67.5V67.5H69.75V65.25Z" fill="#CDD6F4"/>
<path d="M72 65.25H69.75V67.5H72V65.25Z" fill="#CDD6F4"/>
<path d="M74.25 65.25H72V67.5H74.25V65.25Z" fill="#CDD6F4"/>
<path d="M76.5 65.25H74.25V67.5H76.5V65.25Z" fill="#CDD6F4"/>
<path d="M78.75 65.25H76.5V67.5H78.75V65.25Z" fill="#11111B"/>
<path d="M31.5 67.5H29.25V69.75H31.5V67.5Z" fill="#11111B"/>
<path d="M33.75 67.5H31.5V69.75H33.75V67.5Z" fill="#CDD6F4"/>
<path d="M36 67.5H33.75V69.75H36V67.5Z" fill="#CDD6F4"/>
<path d="M38.25 67.5H36V69.75H38.25V67.5Z" fill="#CDD6F4"/>
<path d="M40.5 67.5H38.25V69.75H40.5V67.5Z" fill="#CDD6F4"/>
<path d="M42.75 67.5H40.5V69.75H42.75V67.5Z" fill="#CDD6F4"/>
<path d="M45 67.5H42.75V69.75H45V67.5Z" fill="#CDD6F4"/>
<path d="M47.25 67.5H45V69.75H47.25V67.5Z" fill="#CDD6F4"/>
<path d="M49.5 67.5H47.25V69.75H49.5V67.5Z" fill="#CDD6F4"/>
<path d="M51.75 67.5H49.5V69.75H51.75V67.5Z" fill="#CDD6F4"/>
<path d="M54 67.5H51.75V69.75H54V67.5Z" fill="#F38BA8"/>
<path d="M56.25 67.5H54V69.75H56.25V67.5Z" fill="#F38BA8"/>
<path d="M58.5 67.5H56.25V69.75H58.5V67.5Z" fill="#CDD6F4"/>
<path d="M60.75 67.5H58.5V69.75H60.75V67.5Z" fill="#CDD6F4"/>
<path d="M63 67.5H60.75V69.75H63V67.5Z" fill="#CDD6F4"/>
<path d="M65.25 67.5H63V69.75H65.25V67.5Z" fill="#CDD6F4"/>
<path d="M67.5 67.5H65.25V69.75H67.5V67.5Z" fill="#CDD6F4"/>
<path d="M69.75 67.5H67.5V69.75H69.75V67.5Z" fill="#CDD6F4"/>
<path d="M72 67.5H69.75V69.75H72V67.5Z" fill="#CDD6F4"/>
<path d="M74.25 67.5H72V69.75H74.25V67.5Z" fill="#CDD6F4"/>
<path d="M76.5 67.5H74.25V69.75H76.5V67.5Z" fill="#CDD6F4"/>
<path d="M78.75 67.5H76.5V69.75H78.75V67.5Z" fill="#11111B"/>
<path d="M31.5 69.75H29.25V72H31.5V69.75Z" fill="#11111B"/>
<path d="M33.75 69.75H31.5V72H33.75V69.75Z" fill="#CDD6F4"/>
<path d="M36 69.75H33.75V72H36V69.75Z" fill="#CDD6F4"/>
<path d="M38.25 69.75H36V72H38.25V69.75Z" fill="#CDD6F4"/>
<path d="M40.5 69.75H38.25V72H40.5V69.75Z" fill="#CDD6F4"/>
<path d="M42.75 69.75H40.5V72H42.75V69.75Z" fill="#CDD6F4"/>
<path d="M45 69.75H42.75V72H45V69.75Z" fill="#CDD6F4"/>
<path d="M47.25 69.75H45V72H47.25V69.75Z" fill="#CDD6F4"/>
<path d="M49.5 69.75H47.25V72H49.5V69.75Z" fill="#CDD6F4"/>
<path d="M51.75 69.75H49.5V72H51.75V69.75Z" fill="#CDD6F4"/>
<path d="M54 69.75H51.75V72H54V69.75Z" fill="#CDD6F4"/>
<path d="M56.25 69.75H54V72H56.25V69.75Z" fill="#CDD6F4"/>
<path d="M58.5 69.75H56.25V72H58.5V69.75Z" fill="#CDD6F4"/>
<path d="M60.75 69.75H58.5V72H60.75V69.75Z" fill="#CDD6F4"/>
<path d="M63 69.75H60.75V72H63V69.75Z" fill="#CDD6F4"/>
<path d="M65.25 69.75H63V72H65.25V69.75Z" fill="#CDD6F4"/>
<path d="M67.5 69.75H65.25V72H67.5V69.75Z" fill="#CDD6F4"/>
<path d="M69.75 69.75H67.5V72H69.75V69.75Z" fill="#CDD6F4"/>
<path d="M72 69.75H69.75V72H72V69.75Z" fill="#CDD6F4"/>
<path d="M74.25 69.75H72V72H74.25V69.75Z" fill="#CDD6F4"/>
<path d="M76.5 69.75H74.25V72H76.5V69.75Z" fill="#CDD6F4"/>
<path d="M78.75 69.75H76.5V72H78.75V69.75Z" fill="#11111B"/>
<path d="M31.5 72H29.25V74.25H31.5V72Z" fill="#11111B"/>
<path d="M33.75 72H31.5V74.25H33.75V72Z" fill="#CDD6F4"/>
<path d="M36 72H33.75V74.25H36V72Z" fill="#CDD6F4"/>
<path d="M38.25 72H36V74.25H38.25V72Z" fill="#CDD6F4"/>
<path d="M40.5 72H38.25V74.25H40.5V72Z" fill="#CDD6F4"/>
<path d="M42.75 72H40.5V74.25H42.75V72Z" fill="#CDD6F4"/>
<path d="M45 72H42.75V74.25H45V72Z" fill="#CDD6F4"/>
<path d="M47.25 72H45V74.25H47.25V72Z" fill="#CDD6F4"/>
<path d="M49.5 72H47.25V74.25H49.5V72Z" fill="#CDD6F4"/>
<path d="M51.75 72H49.5V74.25H51.75V72Z" fill="#CDD6F4"/>
<path d="M54 72H51.75V74.25H54V72Z" fill="#CDD6F4"/>
<path d="M56.25 72H54V74.25H56.25V72Z" fill="#CDD6F4"/>
<path d="M58.5 72H56.25V74.25H58.5V72Z" fill="#CDD6F4"/>
<path d="M60.75 72H58.5V74.25H60.75V72Z" fill="#CDD6F4"/>
<path d="M63 72H60.75V74.25H63V72Z" fill="#CDD6F4"/>
<path d="M65.25 72H63V74.25H65.25V72Z" fill="#F38BA8"/>
<path d="M67.5 72H65.25V74.25H67.5V72Z" fill="#CDD6F4"/>
<path d="M69.75 72H67.5V74.25H69.75V72Z" fill="#F38BA8"/>
<path d="M72 72H69.75V74.25H72V72Z" fill="#CDD6F4"/>
<path d="M74.25 72H72V74.25H74.25V72Z" fill="#CDD6F4"/>
<path d="M76.5 72H74.25V74.25H76.5V72Z" fill="#CDD6F4"/>
<path d="M78.75 72H76.5V74.25H78.75V72Z" fill="#11111B"/>
<path d="M31.5 74.25H29.25V76.5H31.5V74.25Z" fill="#11111B"/>
<path d="M33.75 74.25H31.5V76.5H33.75V74.25Z" fill="#CDD6F4"/>
<path d="M36 74.25H33.75V76.5H36V74.25Z" fill="#CDD6F4"/>
<path d="M38.25 74.25H36V76.5H38.25V74.25Z" fill="#CDD6F4"/>
<path d="M40.5 74.25H38.25V76.5H40.5V74.25Z" fill="#CDD6F4"/>
<path d="M42.75 74.25H40.5V76.5H42.75V74.25Z" fill="#CDD6F4"/>
<path d="M45 74.25H42.75V76.5H45V74.25Z" fill="#CDD6F4"/>
<path d="M47.25 74.25H45V76.5H47.25V74.25Z" fill="#CDD6F4"/>
<path d="M49.5 74.25H47.25V76.5H49.5V74.25Z" fill="#CDD6F4"/>
<path d="M51.75 74.25H49.5V76.5H51.75V74.25Z" fill="#CDD6F4"/>
<path d="M54 74.25H51.75V76.5H54V74.25Z" fill="#CDD6F4"/>
<path d="M56.25 74.25H54V76.5H56.25V74.25Z" fill="#CDD6F4"/>
<path d="M58.5 74.25H56.25V76.5H58.5V74.25Z" fill="#CDD6F4"/>
<path d="M60.75 74.25H58.5V76.5H60.75V74.25Z" fill="#CDD6F4"/>
<path d="M63 74.25H60.75V76.5H63V74.25Z" fill="#CDD6F4"/>
<path d="M65.25 74.25H63V76.5H65.25V74.25Z" fill="#F38BA8"/>
<path d="M67.5 74.25H65.25V76.5H67.5V74.25Z" fill="#F38BA8"/>
<path d="M69.75 74.25H67.5V76.5H69.75V74.25Z" fill="#F38BA8"/>
<path d="M72 74.25H69.75V76.5H72V74.25Z" fill="#CDD6F4"/>
<path d="M74.25 74.25H72V76.5H74.25V74.25Z" fill="#CDD6F4"/>
<path d="M76.5 74.25H74.25V76.5H76.5V74.25Z" fill="#CDD6F4"/>
<path d="M78.75 74.25H76.5V76.5H78.75V74.25Z" fill="#11111B"/>
<path d="M31.5 76.5H29.25V78.75H31.5V76.5Z" fill="#11111B"/>
<path d="M33.75 76.5H31.5V78.75H33.75V76.5Z" fill="#CDD6F4"/>
<path d="M36 76.5H33.75V78.75H36V76.5Z" fill="#CDD6F4"/>
<path d="M38.25 76.5H36V78.75H38.25V76.5Z" fill="#CDD6F4"/>
<path d="M40.5 76.5H38.25V78.75H40.5V76.5Z" fill="#CDD6F4"/>
<path d="M42.75 76.5H40.5V78.75H42.75V76.5Z" fill="#CDD6F4"/>
<path d="M45 76.5H42.75V78.75H45V76.5Z" fill="#CDD6F4"/>
<path d="M47.25 76.5H45V78.75H47.25V76.5Z" fill="#CDD6F4"/>
<path d="M49.5 76.5H47.25V78.75H49.5V76.5Z" fill="#CDD6F4"/>
<path d="M51.75 76.5H49.5V78.75H51.75V76.5Z" fill="#CDD6F4"/>
<path d="M54 76.5H51.75V78.75H54V76.5Z" fill="#CDD6F4"/>
<path d="M56.25 76.5H54V78.75H56.25V76.5Z" fill="#CDD6F4"/>
<path d="M58.5 76.5H56.25V78.75H58.5V76.5Z" fill="#CDD6F4"/>
<path d="M60.75 76.5H58.5V78.75H60.75V76.5Z" fill="#CDD6F4"/>
<path d="M63 76.5H60.75V78.75H63V76.5Z" fill="#CDD6F4"/>
<path d="M65.25 76.5H63V78.75H65.25V76.5Z" fill="#F38BA8"/>
<path d="M67.5 76.5H65.25V78.75H67.5V76.5Z" fill="#CDD6F4"/>
<path d="M69.75 76.5H67.5V78.75H69.75V76.5Z" fill="#F38BA8"/>
<path d="M72 76.5H69.75V78.75H72V76.5Z" fill="#CDD6F4"/>
<path d="M74.25 76.5H72V78.75H74.25V76.5Z" fill="#CDD6F4"/>
<path d="M76.5 76.5H74.25V78.75H76.5V76.5Z" fill="#CDD6F4"/>
<path d="M78.75 76.5H76.5V78.75H78.75V76.5Z" fill="#11111B"/>
<path d="M31.5 78.75H29.25V81H31.5V78.75Z" fill="#11111B"/>
<path d="M33.75 78.75H31.5V81H33.75V78.75Z" fill="#CDD6F4"/>
<path d="M36 78.75H33.75V81H36V78.75Z" fill="#CDD6F4"/>
<path d="M38.25 78.75H36V81H38.25V78.75Z" fill="#CDD6F4"/>
<path d="M40.5 78.75H38.25V81H40.5V78.75Z" fill="#CDD6F4"/>
<path d="M42.75 78.75H40.5V81H42.75V78.75Z" fill="#CDD6F4"/>
<path d="M45 78.75H42.75V81H45V78.75Z" fill="#CDD6F4"/>
<path d="M47.25 78.75H45V81H47.25V78.75Z" fill="#CDD6F4"/>
<path d="M49.5 78.75H47.25V81H49.5V78.75Z" fill="#CDD6F4"/>
<path d="M51.75 78.75H49.5V81H51.75V78.75Z" fill="#CDD6F4"/>
<path d="M54 78.75H51.75V81H54V78.75Z" fill="#CDD6F4"/>
<path d="M56.25 78.75H54V81H56.25V78.75Z" fill="#CDD6F4"/>
<path d="M58.5 78.75H56.25V81H58.5V78.75Z" fill="#CDD6F4"/>
<path d="M60.75 78.75H58.5V81H60.75V78.75Z" fill="#CDD6F4"/>
<path d="M63 78.75H60.75V81H63V78.75Z" fill="#CDD6F4"/>
<path d="M65.25 78.75H63V81H65.25V78.75Z" fill="#F38BA8"/>
<path d="M67.5 78.75H65.25V81H67.5V78.75Z" fill="#CDD6F4"/>
<path d="M69.75 78.75H67.5V81H69.75V78.75Z" fill="#F38BA8"/>
<path d="M72 78.75H69.75V81H72V78.75Z" fill="#CDD6F4"/>
<path d="M74.25 78.75H72V81H74.25V78.75Z" fill="#CDD6F4"/>
<path d="M76.5 78.75H74.25V81H76.5V78.75Z" fill="#CDD6F4"/>
<path d="M78.75 78.75H76.5V81H78.75V78.75Z" fill="#11111B"/>
<path d="M31.5 81H29.25V83.25H31.5V81Z" fill="#11111B"/>
<path d="M33.75 81H31.5V83.25H33.75V81Z" fill="#CDD6F4"/>
<path d="M36 81H33.75V83.25H36V81Z" fill="#CDD6F4"/>
<path d="M38.25 81H36V83.25H38.25V81Z" fill="#CDD6F4"/>
<path d="M40.5 81H38.25V83.25H40.5V81Z" fill="#CDD6F4"/>
<path d="M42.75 81H40.5V83.25H42.75V81Z" fill="#CDD6F4"/>
<path d="M45 81H42.75V83.25H45V81Z" fill="#CDD6F4"/>
<path d="M47.25 81H45V83.25H47.25V81Z" fill="#CDD6F4"/>
<path d="M49.5 81H47.25V83.25H49.5V81Z" fill="#CDD6F4"/>
<path d="M51.75 81H49.5V83.25H51.75V81Z" fill="#CDD6F4"/>
<path d="M54 81H51.75V83.25H54V81Z" fill="#CDD6F4"/>
<path d="M56.25 81H54V83.25H56.25V81Z" fill="#CDD6F4"/>
<path d="M58.5 81H56.25V83.25H58.5V81Z" fill="#CDD6F4"/>
<path d="M60.75 81H58.5V83.25H60.75V81Z" fill="#CDD6F4"/>
<path d="M63 81H60.75V83.25H63V81Z" fill="#CDD6F4"/>
<path d="M65.25 81H63V83.25H65.25V81Z" fill="#CDD6F4"/>
<path d="M67.5 81H65.25V83.25H67.5V81Z" fill="#F38BA8"/>
<path d="M69.75 81H67.5V83.25H69.75V81Z" fill="#CDD6F4"/>
<path d="M72 81H69.75V83.25H72V81Z" fill="#CDD6F4"/>
<path d="M74.25 81H72V83.25H74.25V81Z" fill="#CDD6F4"/>
<path d="M76.5 81H74.25V83.25H76.5V81Z" fill="#CDD6F4"/>
<path d="M78.75 81H76.5V83.25H78.75V81Z" fill="#11111B"/>
<path d="M31.5 83.25H29.25V85.5H31.5V83.25Z" fill="#11111B"/>
<path d="M33.75 83.25H31.5V85.5H33.75V83.25Z" fill="#11111B"/>
<path d="M36 83.25H33.75V85.5H36V83.25Z" fill="#CDD6F4"/>
<path d="M38.25 83.25H36V85.5H38.25V83.25Z" fill="#CDD6F4"/>
<path d="M40.5 83.25H38.25V85.5H40.5V83.25Z" fill="#CDD6F4"/>
<path d="M42.75 83.25H40.5V85.5H42.75V83.25Z" fill="#CDD6F4"/>
<path d="M45 83.25H42.75V85.5H45V83.25Z" fill="#CDD6F4"/>
<path d="M47.25 83.25H45V85.5H47.25V83.25Z" fill="#CDD6F4"/>
<path d="M49.5 83.25H47.25V85.5H49.5V83.25Z" fill="#CDD6F4"/>
<path d="M51.75 83.25H49.5V85.5H51.75V83.25Z" fill="#CDD6F4"/>
<path d="M54 83.25H51.75V85.5H54V83.25Z" fill="#CDD6F4"/>
<path d="M56.25 83.25H54V85.5H56.25V83.25Z" fill="#CDD6F4"/>
<path d="M58.5 83.25H56.25V85.5H58.5V83.25Z" fill="#CDD6F4"/>
<path d="M60.75 83.25H58.5V85.5H60.75V83.25Z" fill="#CDD6F4"/>
<path d="M63 83.25H60.75V85.5H63V83.25Z" fill="#CDD6F4"/>
<path d="M65.25 83.25H63V85.5H65.25V83.25Z" fill="#CDD6F4"/>
<path d="M67.5 83.25H65.25V85.5H67.5V83.25Z" fill="#CDD6F4"/>
<path d="M69.75 83.25H67.5V85.5H69.75V83.25Z" fill="#CDD6F4"/>
<path d="M72 83.25H69.75V85.5H72V83.25Z" fill="#CDD6F4"/>
<path d="M74.25 83.25H72V85.5H74.25V83.25Z" fill="#CDD6F4"/>
<path d="M76.5 83.25H74.25V85.5H76.5V83.25Z" fill="#11111B"/>
<path d="M78.75 83.25H76.5V85.5H78.75V83.25Z" fill="#11111B"/>
<path d="M33.75 85.5H31.5V87.75H33.75V85.5Z" fill="#11111B"/>
<path d="M36 85.5H33.75V87.75H36V85.5Z" fill="#11111B"/>
<path d="M38.25 85.5H36V87.75H38.25V85.5Z" fill="#CDD6F4"/>
<path d="M40.5 85.5H38.25V87.75H40.5V85.5Z" fill="#CDD6F4"/>
<path d="M42.75 85.5H40.5V87.75H42.75V85.5Z" fill="#CDD6F4"/>
<path d="M45 85.5H42.75V87.75H45V85.5Z" fill="#CDD6F4"/>
<path d="M47.25 85.5H45V87.75H47.25V85.5Z" fill="#CDD6F4"/>
<path d="M49.5 85.5H47.25V87.75H49.5V85.5Z" fill="#CDD6F4"/>
<path d="M51.75 85.5H49.5V87.75H51.75V85.5Z" fill="#CDD6F4"/>
<path d="M54 85.5H51.75V87.75H54V85.5Z" fill="#CDD6F4"/>
<path d="M56.25 85.5H54V87.75H56.25V85.5Z" fill="#CDD6F4"/>
<path d="M58.5 85.5H56.25V87.75H58.5V85.5Z" fill="#CDD6F4"/>
<path d="M60.75 85.5H58.5V87.75H60.75V85.5Z" fill="#CDD6F4"/>
<path d="M63 85.5H60.75V87.75H63V85.5Z" fill="#CDD6F4"/>
<path d="M65.25 85.5H63V87.75H65.25V85.5Z" fill="#CDD6F4"/>
<path d="M67.5 85.5H65.25V87.75H67.5V85.5Z" fill="#CDD6F4"/>
<path d="M69.75 85.5H67.5V87.75H69.75V85.5Z" fill="#CDD6F4"/>
<path d="M72 85.5H69.75V87.75H72V85.5Z" fill="#CDD6F4"/>
<path d="M74.25 85.5H72V87.75H74.25V85.5Z" fill="#11111B"/>
<path d="M76.5 85.5H74.25V87.75H76.5V85.5Z" fill="#11111B"/>
<path d="M36 87.75H33.75V90H36V87.75Z" fill="#11111B"/>
<path d="M38.25 87.75H36V90H38.25V87.75Z" fill="#11111B"/>
<path d="M40.5 87.75H38.25V90H40.5V87.75Z" fill="#11111B"/>
<path d="M42.75 87.75H40.5V90H42.75V87.75Z" fill="#11111B"/>
<path d="M45 87.75H42.75V90H45V87.75Z" fill="#11111B"/>
<path d="M47.25 87.75H45V90H47.25V87.75Z" fill="#11111B"/>
<path d="M49.5 87.75H47.25V90H49.5V87.75Z" fill="#11111B"/>
<path d="M51.75 87.75H49.5V90H51.75V87.75Z" fill="#11111B"/>
<path d="M54 87.75H51.75V90H54V87.75Z" fill="#11111B"/>
<path d="M56.25 87.75H54V90H56.25V87.75Z" fill="#11111B"/>
<path d="M58.5 87.75H56.25V90H58.5V87.75Z" fill="#11111B"/>
<path d="M60.75 87.75H58.5V90H60.75V87.75Z" fill="#11111B"/>
<path d="M63 87.75H60.75V90H63V87.75Z" fill="#11111B"/>
<path d="M65.25 87.75H63V90H65.25V87.75Z" fill="#11111B"/>
<path d="M67.5 87.75H65.25V90H67.5V87.75Z" fill="#11111B"/>
<path d="M69.75 87.75H67.5V90H69.75V87.75Z" fill="#11111B"/>
<path d="M72 87.75H69.75V90H72V87.75Z" fill="#11111B"/>
<path d="M74.25 87.75H72V90H74.25V87.75Z" fill="#11111B"/>
</g>
<defs>
<clipPath id="clip0_22426_2837">
<rect width="49.5" height="72" fill="white" transform="translate(29.25 18)"/>
</clipPath>
</defs>
</svg>
