<svg width="108" height="108" viewBox="0 0 108 108" fill="none" xmlns="http://www.w3.org/2000/svg">
<path d="M41.7955 27.5156H40.0342V29.2812H41.7955V27.5156Z" fill="#616161"/>
<path d="M43.5568 27.5156H41.7954V29.2812H43.5568V27.5156Z" fill="#616161"/>
<path d="M45.3182 27.5156H43.5569V29.2812H45.3182V27.5156Z" fill="#616161"/>
<path d="M47.0795 27.5156H45.3181V29.2812H47.0795V27.5156Z" fill="#616161"/>
<path d="M48.841 27.5156H47.0796V29.2812H48.841V27.5156Z" fill="#616161"/>
<path d="M50.6022 27.5156H48.8408V29.2812H50.6022V27.5156Z" fill="#616161"/>
<path d="M52.3637 27.5156H50.6023V29.2812H52.3637V27.5156Z" fill="#616161"/>
<path d="M54.1251 27.5156H52.3638V29.2812H54.1251V27.5156Z" fill="#616161"/>
<path d="M55.8864 27.5156H54.125V29.2812H55.8864V27.5156Z" fill="#616161"/>
<path d="M57.6476 27.5156H55.8862V29.2812H57.6476V27.5156Z" fill="#616161"/>
<path d="M59.4091 27.5156H57.6477V29.2812H59.4091V27.5156Z" fill="#616161"/>
<path d="M61.1705 27.5156H59.4092V29.2812H61.1705V27.5156Z" fill="#616161"/>
<path d="M62.9318 27.5156H61.1704V29.2812H62.9318V27.5156Z" fill="#616161"/>
<path d="M64.6932 27.5156H62.9319V29.2812H64.6932V27.5156Z" fill="#616161"/>
<path d="M66.4545 27.5156H64.6931V29.2812H66.4545V27.5156Z" fill="#616161"/>
<path d="M68.216 27.5156H66.4546V29.2812H68.216V27.5156Z" fill="#616161"/>
<path d="M40.0341 29.2812H38.2727V31.0469H40.0341V29.2812Z" fill="#616161"/>
<path d="M41.7955 29.2812H40.0342V31.0469H41.7955V29.2812Z" fill="#616161"/>
<path d="M43.5568 29.2812H41.7954V31.0469H43.5568V29.2812Z" fill="#616161"/>
<path d="M45.3182 29.2812H43.5569V31.0469H45.3182V29.2812Z" fill="#616161"/>
<path d="M47.0795 29.2812H45.3181V31.0469H47.0795V29.2812Z" fill="#616161"/>
<path d="M48.841 29.2812H47.0796V31.0469H48.841V29.2812Z" fill="#616161"/>
<path d="M50.6022 29.2812H48.8408V31.0469H50.6022V29.2812Z" fill="#616161"/>
<path d="M52.3637 29.2812H50.6023V31.0469H52.3637V29.2812Z" fill="#616161"/>
<path d="M54.1251 29.2812H52.3638V31.0469H54.1251V29.2812Z" fill="#616161"/>
<path d="M55.8864 29.2812H54.125V31.0469H55.8864V29.2812Z" fill="#616161"/>
<path d="M57.6476 29.2812H55.8862V31.0469H57.6476V29.2812Z" fill="#616161"/>
<path d="M59.4091 29.2812H57.6477V31.0469H59.4091V29.2812Z" fill="#616161"/>
<path d="M61.1705 29.2812H59.4092V31.0469H61.1705V29.2812Z" fill="#616161"/>
<path d="M62.9318 29.2812H61.1704V31.0469H62.9318V29.2812Z" fill="#616161"/>
<path d="M64.6932 29.2812H62.9319V31.0469H64.6932V29.2812Z" fill="#616161"/>
<path d="M66.4545 29.2812H64.6931V31.0469H66.4545V29.2812Z" fill="#616161"/>
<path d="M68.216 29.2812H66.4546V31.0469H68.216V29.2812Z" fill="#616161"/>
<path d="M69.9772 29.2812H68.2158V31.0469H69.9772V29.2812Z" fill="#616161"/>
<path d="M38.2726 31.0469H36.5112V32.8125H38.2726V31.0469Z" fill="#616161"/>
<path d="M40.0341 31.0469H38.2727V32.8125H40.0341V31.0469Z" fill="#616161"/>
<path d="M41.7955 31.0469H40.0342V32.8125H41.7955V31.0469Z" fill="#616161"/>
<path d="M43.5568 31.0469H41.7954V32.8125H43.5568V31.0469Z" fill="#616161"/>
<path d="M47.0795 31.0469H45.3181V32.8125H47.0795V31.0469Z" fill="#616161"/>
<path d="M48.841 31.0469H47.0796V32.8125H48.841V31.0469Z" fill="#616161"/>
<path d="M50.6022 31.0469H48.8408V32.8125H50.6022V31.0469Z" fill="#616161"/>
<path d="M52.3637 31.0469H50.6023V32.8125H52.3637V31.0469Z" fill="#616161"/>
<path d="M54.1251 31.0469H52.3638V32.8125H54.1251V31.0469Z" fill="#616161"/>
<path d="M55.8864 31.0469H54.125V32.8125H55.8864V31.0469Z" fill="#616161"/>
<path d="M57.6476 31.0469H55.8862V32.8125H57.6476V31.0469Z" fill="#616161"/>
<path d="M59.4091 31.0469H57.6477V32.8125H59.4091V31.0469Z" fill="#616161"/>
<path d="M61.1705 31.0469H59.4092V32.8125H61.1705V31.0469Z" fill="#616161"/>
<path d="M62.9318 31.0469H61.1704V32.8125H62.9318V31.0469Z" fill="#616161"/>
<path d="M64.6932 31.0469H62.9319V32.8125H64.6932V31.0469Z" fill="#616161"/>
<path d="M66.4545 31.0469H64.6931V32.8125H66.4545V31.0469Z" fill="#616161"/>
<path d="M68.216 31.0469H66.4546V32.8125H68.216V31.0469Z" fill="#616161"/>
<path d="M69.9772 31.0469H68.2158V32.8125H69.9772V31.0469Z" fill="#616161"/>
<path d="M71.7387 31.0469H69.9773V32.8125H71.7387V31.0469Z" fill="#616161"/>
<path d="M38.2726 32.8125H36.5112V34.5781H38.2726V32.8125Z" fill="#616161"/>
<path d="M40.0341 32.8125H38.2727V34.5781H40.0341V32.8125Z" fill="#616161"/>
<path d="M41.7955 32.8125H40.0342V34.5781H41.7955V32.8125Z" fill="#616161"/>
<path d="M45.3182 32.8125H43.5569V34.5781H45.3182V32.8125Z" fill="#616161"/>
<path d="M48.841 32.8125H47.0796V34.5781H48.841V32.8125Z" fill="#616161"/>
<path d="M50.6022 32.8125H48.8408V34.5781H50.6022V32.8125Z" fill="#616161"/>
<path d="M52.3637 32.8125H50.6023V34.5781H52.3637V32.8125Z" fill="#616161"/>
<path d="M54.1251 32.8125H52.3638V34.5781H54.1251V32.8125Z" fill="#616161"/>
<path d="M55.8864 32.8125H54.125V34.5781H55.8864V32.8125Z" fill="#616161"/>
<path d="M57.6476 32.8125H55.8862V34.5781H57.6476V32.8125Z" fill="#616161"/>
<path d="M59.4091 32.8125H57.6477V34.5781H59.4091V32.8125Z" fill="#616161"/>
<path d="M61.1705 32.8125H59.4092V34.5781H61.1705V32.8125Z" fill="#616161"/>
<path d="M62.9318 32.8125H61.1704V34.5781H62.9318V32.8125Z" fill="#616161"/>
<path d="M64.6932 32.8125H62.9319V34.5781H64.6932V32.8125Z" fill="#616161"/>
<path d="M66.4545 32.8125H64.6931V34.5781H66.4545V32.8125Z" fill="#616161"/>
<path d="M68.216 32.8125H66.4546V34.5781H68.216V32.8125Z" fill="#616161"/>
<path d="M69.9772 32.8125H68.2158V34.5781H69.9772V32.8125Z" fill="#616161"/>
<path d="M71.7387 32.8125H69.9773V34.5781H71.7387V32.8125Z" fill="#616161"/>
<path d="M38.2726 34.5781H36.5112V36.3438H38.2726V34.5781Z" fill="#616161"/>
<path d="M40.0341 34.5781H38.2727V36.3438H40.0341V34.5781Z" fill="#616161"/>
<path d="M41.7955 34.5781H40.0342V36.3438H41.7955V34.5781Z" fill="#616161"/>
<path d="M45.3182 34.5781H43.5569V36.3438H45.3182V34.5781Z" fill="#616161"/>
<path d="M48.841 34.5781H47.0796V36.3438H48.841V34.5781Z" fill="#616161"/>
<path d="M50.6022 34.5781H48.8408V36.3438H50.6022V34.5781Z" fill="#616161"/>
<path d="M52.3637 34.5781H50.6023V36.3438H52.3637V34.5781Z" fill="#616161"/>
<path d="M54.1251 34.5781H52.3638V36.3438H54.1251V34.5781Z" fill="#616161"/>
<path d="M55.8864 34.5781H54.125V36.3438H55.8864V34.5781Z" fill="#616161"/>
<path d="M57.6476 34.5781H55.8862V36.3438H57.6476V34.5781Z" fill="#616161"/>
<path d="M59.4091 34.5781H57.6477V36.3438H59.4091V34.5781Z" fill="#616161"/>
<path d="M61.1705 34.5781H59.4092V36.3438H61.1705V34.5781Z" fill="#616161"/>
<path d="M62.9318 34.5781H61.1704V36.3438H62.9318V34.5781Z" fill="#616161"/>
<path d="M64.6932 34.5781H62.9319V36.3438H64.6932V34.5781Z" fill="#616161"/>
<path d="M66.4545 34.5781H64.6931V36.3438H66.4545V34.5781Z" fill="#616161"/>
<path d="M68.216 34.5781H66.4546V36.3438H68.216V34.5781Z" fill="#616161"/>
<path d="M69.9772 34.5781H68.2158V36.3438H69.9772V34.5781Z" fill="#616161"/>
<path d="M71.7387 34.5781H69.9773V36.3438H71.7387V34.5781Z" fill="#616161"/>
<path d="M38.2726 36.3438H36.5112V38.1094H38.2726V36.3438Z" fill="#616161"/>
<path d="M40.0341 36.3438H38.2727V38.1094H40.0341V36.3438Z" fill="#616161"/>
<path d="M41.7955 36.3438H40.0342V38.1094H41.7955V36.3438Z" fill="#616161"/>
<path d="M48.841 36.3438H47.0796V38.1094H48.841V36.3438Z" fill="#616161"/>
<path d="M50.6022 36.3438H48.8408V38.1094H50.6022V36.3438Z" fill="#616161"/>
<path d="M52.3637 36.3438H50.6023V38.1094H52.3637V36.3438Z" fill="#616161"/>
<path d="M54.1251 36.3438H52.3638V38.1094H54.1251V36.3438Z" fill="#616161"/>
<path d="M55.8864 36.3438H54.125V38.1094H55.8864V36.3438Z" fill="#616161"/>
<path d="M57.6476 36.3438H55.8862V38.1094H57.6476V36.3438Z" fill="#616161"/>
<path d="M59.4091 36.3438H57.6477V38.1094H59.4091V36.3438Z" fill="#616161"/>
<path d="M61.1705 36.3438H59.4092V38.1094H61.1705V36.3438Z" fill="#616161"/>
<path d="M62.9318 36.3438H61.1704V38.1094H62.9318V36.3438Z" fill="#616161"/>
<path d="M64.6932 36.3438H62.9319V38.1094H64.6932V36.3438Z" fill="#616161"/>
<path d="M66.4545 36.3438H64.6931V38.1094H66.4545V36.3438Z" fill="#616161"/>
<path d="M68.216 36.3438H66.4546V38.1094H68.216V36.3438Z" fill="#616161"/>
<path d="M69.9772 36.3438H68.2158V38.1094H69.9772V36.3438Z" fill="#616161"/>
<path d="M71.7387 36.3438H69.9773V38.1094H71.7387V36.3438Z" fill="#616161"/>
<path d="M38.2726 38.1094H36.5112V39.875H38.2726V38.1094Z" fill="#616161"/>
<path d="M40.0341 38.1094H38.2727V39.875H40.0341V38.1094Z" fill="#616161"/>
<path d="M41.7955 38.1094H40.0342V39.875H41.7955V38.1094Z" fill="#616161"/>
<path d="M45.3182 38.1094H43.5569V39.875H45.3182V38.1094Z" fill="#616161"/>
<path d="M48.841 38.1094H47.0796V39.875H48.841V38.1094Z" fill="#616161"/>
<path d="M50.6022 38.1094H48.8408V39.875H50.6022V38.1094Z" fill="#616161"/>
<path d="M52.3637 38.1094H50.6023V39.875H52.3637V38.1094Z" fill="#616161"/>
<path d="M54.1251 38.1094H52.3638V39.875H54.1251V38.1094Z" fill="#616161"/>
<path d="M55.8864 38.1094H54.125V39.875H55.8864V38.1094Z" fill="#616161"/>
<path d="M57.6476 38.1094H55.8862V39.875H57.6476V38.1094Z" fill="#616161"/>
<path d="M59.4091 38.1094H57.6477V39.875H59.4091V38.1094Z" fill="#616161"/>
<path d="M61.1705 38.1094H59.4092V39.875H61.1705V38.1094Z" fill="#616161"/>
<path d="M62.9318 38.1094H61.1704V39.875H62.9318V38.1094Z" fill="#616161"/>
<path d="M64.6932 38.1094H62.9319V39.875H64.6932V38.1094Z" fill="#616161"/>
<path d="M66.4545 38.1094H64.6931V39.875H66.4545V38.1094Z" fill="#616161"/>
<path d="M68.216 38.1094H66.4546V39.875H68.216V38.1094Z" fill="#616161"/>
<path d="M69.9772 38.1094H68.2158V39.875H69.9772V38.1094Z" fill="#616161"/>
<path d="M71.7387 38.1094H69.9773V39.875H71.7387V38.1094Z" fill="#616161"/>
<path d="M38.2726 39.875H36.5112V41.6406H38.2726V39.875Z" fill="#616161"/>
<path d="M40.0341 39.875H38.2727V41.6406H40.0341V39.875Z" fill="#616161"/>
<path d="M41.7955 39.875H40.0342V41.6406H41.7955V39.875Z" fill="#616161"/>
<path d="M43.5568 39.875H41.7954V41.6406H43.5568V39.875Z" fill="#616161"/>
<path d="M45.3182 39.875H43.5569V41.6406H45.3182V39.875Z" fill="#616161"/>
<path d="M47.0795 39.875H45.3181V41.6406H47.0795V39.875Z" fill="#616161"/>
<path d="M48.841 39.875H47.0796V41.6406H48.841V39.875Z" fill="#616161"/>
<path d="M50.6022 39.875H48.8408V41.6406H50.6022V39.875Z" fill="#616161"/>
<path d="M52.3637 39.875H50.6023V41.6406H52.3637V39.875Z" fill="#616161"/>
<path d="M54.1251 39.875H52.3638V41.6406H54.1251V39.875Z" fill="#616161"/>
<path d="M55.8864 39.875H54.125V41.6406H55.8864V39.875Z" fill="#616161"/>
<path d="M57.6476 39.875H55.8862V41.6406H57.6476V39.875Z" fill="#616161"/>
<path d="M59.4091 39.875H57.6477V41.6406H59.4091V39.875Z" fill="#616161"/>
<path d="M61.1705 39.875H59.4092V41.6406H61.1705V39.875Z" fill="#616161"/>
<path d="M62.9318 39.875H61.1704V41.6406H62.9318V39.875Z" fill="#616161"/>
<path d="M64.6932 39.875H62.9319V41.6406H64.6932V39.875Z" fill="#616161"/>
<path d="M66.4545 39.875H64.6931V41.6406H66.4545V39.875Z" fill="#616161"/>
<path d="M68.216 39.875H66.4546V41.6406H68.216V39.875Z" fill="#616161"/>
<path d="M69.9772 39.875H68.2158V41.6406H69.9772V39.875Z" fill="#616161"/>
<path d="M71.7387 39.875H69.9773V41.6406H71.7387V39.875Z" fill="#616161"/>
<path d="M38.2726 41.6406H36.5112V43.4062H38.2726V41.6406Z" fill="#616161"/>
<path d="M40.0341 41.6406H38.2727V43.4062H40.0341V41.6406Z" fill="#616161"/>
<path d="M41.7955 41.6406H40.0342V43.4062H41.7955V41.6406Z" fill="#616161"/>
<path d="M43.5568 41.6406H41.7954V43.4062H43.5568V41.6406Z" fill="#616161"/>
<path d="M45.3182 41.6406H43.5569V43.4062H45.3182V41.6406Z" fill="#616161"/>
<path d="M47.0795 41.6406H45.3181V43.4062H47.0795V41.6406Z" fill="#616161"/>
<path d="M48.841 41.6406H47.0796V43.4062H48.841V41.6406Z" fill="#616161"/>
<path d="M50.6022 41.6406H48.8408V43.4062H50.6022V41.6406Z" fill="#616161"/>
<path d="M52.3637 41.6406H50.6023V43.4062H52.3637V41.6406Z" fill="#616161"/>
<path d="M57.6476 41.6406H55.8862V43.4062H57.6476V41.6406Z" fill="#616161"/>
<path d="M59.4091 41.6406H57.6477V43.4062H59.4091V41.6406Z" fill="#616161"/>
<path d="M61.1705 41.6406H59.4092V43.4062H61.1705V41.6406Z" fill="#616161"/>
<path d="M62.9318 41.6406H61.1704V43.4062H62.9318V41.6406Z" fill="#616161"/>
<path d="M64.6932 41.6406H62.9319V43.4062H64.6932V41.6406Z" fill="#616161"/>
<path d="M66.4545 41.6406H64.6931V43.4062H66.4545V41.6406Z" fill="#616161"/>
<path d="M68.216 41.6406H66.4546V43.4062H68.216V41.6406Z" fill="#616161"/>
<path d="M69.9772 41.6406H68.2158V43.4062H69.9772V41.6406Z" fill="#616161"/>
<path d="M71.7387 41.6406H69.9773V43.4062H71.7387V41.6406Z" fill="#616161"/>
<path d="M38.2726 43.4062H36.5112V45.1719H38.2726V43.4062Z" fill="#616161"/>
<path d="M40.0341 43.4062H38.2727V45.1719H40.0341V43.4062Z" fill="#616161"/>
<path d="M41.7955 43.4062H40.0342V45.1719H41.7955V43.4062Z" fill="#616161"/>
<path d="M43.5568 43.4062H41.7954V45.1719H43.5568V43.4062Z" fill="#616161"/>
<path d="M45.3182 43.4062H43.5569V45.1719H45.3182V43.4062Z" fill="#616161"/>
<path d="M47.0795 43.4062H45.3181V45.1719H47.0795V43.4062Z" fill="#616161"/>
<path d="M48.841 43.4062H47.0796V45.1719H48.841V43.4062Z" fill="#616161"/>
<path d="M50.6022 43.4062H48.8408V45.1719H50.6022V43.4062Z" fill="#616161"/>
<path d="M52.3637 43.4062H50.6023V45.1719H52.3637V43.4062Z" fill="#616161"/>
<path d="M57.6476 43.4062H55.8862V45.1719H57.6476V43.4062Z" fill="#616161"/>
<path d="M59.4091 43.4062H57.6477V45.1719H59.4091V43.4062Z" fill="#616161"/>
<path d="M61.1705 43.4062H59.4092V45.1719H61.1705V43.4062Z" fill="#616161"/>
<path d="M62.9318 43.4062H61.1704V45.1719H62.9318V43.4062Z" fill="#616161"/>
<path d="M64.6932 43.4062H62.9319V45.1719H64.6932V43.4062Z" fill="#616161"/>
<path d="M66.4545 43.4062H64.6931V45.1719H66.4545V43.4062Z" fill="#616161"/>
<path d="M68.216 43.4062H66.4546V45.1719H68.216V43.4062Z" fill="#616161"/>
<path d="M69.9772 43.4062H68.2158V45.1719H69.9772V43.4062Z" fill="#616161"/>
<path d="M71.7387 43.4062H69.9773V45.1719H71.7387V43.4062Z" fill="#616161"/>
<path d="M38.2726 45.1719H36.5112V46.9375H38.2726V45.1719Z" fill="#616161"/>
<path d="M40.0341 45.1719H38.2727V46.9375H40.0341V45.1719Z" fill="#616161"/>
<path d="M41.7955 45.1719H40.0342V46.9375H41.7955V45.1719Z" fill="#616161"/>
<path d="M43.5568 45.1719H41.7954V46.9375H43.5568V45.1719Z" fill="#616161"/>
<path d="M45.3182 45.1719H43.5569V46.9375H45.3182V45.1719Z" fill="#616161"/>
<path d="M47.0795 45.1719H45.3181V46.9375H47.0795V45.1719Z" fill="#616161"/>
<path d="M48.841 45.1719H47.0796V46.9375H48.841V45.1719Z" fill="#616161"/>
<path d="M50.6022 45.1719H48.8408V46.9375H50.6022V45.1719Z" fill="#616161"/>
<path d="M59.4091 45.1719H57.6477V46.9375H59.4091V45.1719Z" fill="#616161"/>
<path d="M61.1705 45.1719H59.4092V46.9375H61.1705V45.1719Z" fill="#616161"/>
<path d="M62.9318 45.1719H61.1704V46.9375H62.9318V45.1719Z" fill="#616161"/>
<path d="M64.6932 45.1719H62.9319V46.9375H64.6932V45.1719Z" fill="#616161"/>
<path d="M66.4545 45.1719H64.6931V46.9375H66.4545V45.1719Z" fill="#616161"/>
<path d="M68.216 45.1719H66.4546V46.9375H68.216V45.1719Z" fill="#616161"/>
<path d="M69.9772 45.1719H68.2158V46.9375H69.9772V45.1719Z" fill="#616161"/>
<path d="M71.7387 45.1719H69.9773V46.9375H71.7387V45.1719Z" fill="#616161"/>
<path d="M38.2726 46.9375H36.5112V48.7031H38.2726V46.9375Z" fill="#616161"/>
<path d="M40.0341 46.9375H38.2727V48.7031H40.0341V46.9375Z" fill="#616161"/>
<path d="M41.7955 46.9375H40.0342V48.7031H41.7955V46.9375Z" fill="#616161"/>
<path d="M43.5568 46.9375H41.7954V48.7031H43.5568V46.9375Z" fill="#616161"/>
<path d="M45.3182 46.9375H43.5569V48.7031H45.3182V46.9375Z" fill="#616161"/>
<path d="M47.0795 46.9375H45.3181V48.7031H47.0795V46.9375Z" fill="#616161"/>
<path d="M48.841 46.9375H47.0796V48.7031H48.841V46.9375Z" fill="#616161"/>
<path d="M50.6022 46.9375H48.8408V48.7031H50.6022V46.9375Z" fill="#616161"/>
<path d="M59.4091 46.9375H57.6477V48.7031H59.4091V46.9375Z" fill="#616161"/>
<path d="M61.1705 46.9375H59.4092V48.7031H61.1705V46.9375Z" fill="#616161"/>
<path d="M62.9318 46.9375H61.1704V48.7031H62.9318V46.9375Z" fill="#616161"/>
<path d="M64.6932 46.9375H62.9319V48.7031H64.6932V46.9375Z" fill="#616161"/>
<path d="M66.4545 46.9375H64.6931V48.7031H66.4545V46.9375Z" fill="#616161"/>
<path d="M68.216 46.9375H66.4546V48.7031H68.216V46.9375Z" fill="#616161"/>
<path d="M69.9772 46.9375H68.2158V48.7031H69.9772V46.9375Z" fill="#616161"/>
<path d="M71.7387 46.9375H69.9773V48.7031H71.7387V46.9375Z" fill="#616161"/>
<path d="M38.2726 48.7031H36.5112V50.4688H38.2726V48.7031Z" fill="#616161"/>
<path d="M40.0341 48.7031H38.2727V50.4688H40.0341V48.7031Z" fill="#616161"/>
<path d="M41.7955 48.7031H40.0342V50.4688H41.7955V48.7031Z" fill="#616161"/>
<path d="M43.5568 48.7031H41.7954V50.4688H43.5568V48.7031Z" fill="#616161"/>
<path d="M45.3182 48.7031H43.5569V50.4688H45.3182V48.7031Z" fill="#616161"/>
<path d="M47.0795 48.7031H45.3181V50.4688H47.0795V48.7031Z" fill="#616161"/>
<path d="M48.841 48.7031H47.0796V50.4688H48.841V48.7031Z" fill="#616161"/>
<path d="M61.1705 48.7031H59.4092V50.4688H61.1705V48.7031Z" fill="#616161"/>
<path d="M62.9318 48.7031H61.1704V50.4688H62.9318V48.7031Z" fill="#616161"/>
<path d="M64.6932 48.7031H62.9319V50.4688H64.6932V48.7031Z" fill="#616161"/>
<path d="M66.4545 48.7031H64.6931V50.4688H66.4545V48.7031Z" fill="#616161"/>
<path d="M68.216 48.7031H66.4546V50.4688H68.216V48.7031Z" fill="#616161"/>
<path d="M69.9772 48.7031H68.2158V50.4688H69.9772V48.7031Z" fill="#616161"/>
<path d="M71.7387 48.7031H69.9773V50.4688H71.7387V48.7031Z" fill="#616161"/>
<path d="M38.2726 50.4688H36.5112V52.2344H38.2726V50.4688Z" fill="#616161"/>
<path d="M40.0341 50.4688H38.2727V52.2344H40.0341V50.4688Z" fill="#616161"/>
<path d="M41.7955 50.4688H40.0342V52.2344H41.7955V50.4688Z" fill="#616161"/>
<path d="M43.5568 50.4688H41.7954V52.2344H43.5568V50.4688Z" fill="#616161"/>
<path d="M45.3182 50.4688H43.5569V52.2344H45.3182V50.4688Z" fill="#616161"/>
<path d="M47.0795 50.4688H45.3181V52.2344H47.0795V50.4688Z" fill="#616161"/>
<path d="M48.841 50.4688H47.0796V52.2344H48.841V50.4688Z" fill="#616161"/>
<path d="M61.1705 50.4688H59.4092V52.2344H61.1705V50.4688Z" fill="#616161"/>
<path d="M62.9318 50.4688H61.1704V52.2344H62.9318V50.4688Z" fill="#616161"/>
<path d="M64.6932 50.4688H62.9319V52.2344H64.6932V50.4688Z" fill="#616161"/>
<path d="M66.4545 50.4688H64.6931V52.2344H66.4545V50.4688Z" fill="#616161"/>
<path d="M68.216 50.4688H66.4546V52.2344H68.216V50.4688Z" fill="#616161"/>
<path d="M69.9772 50.4688H68.2158V52.2344H69.9772V50.4688Z" fill="#616161"/>
<path d="M71.7387 50.4688H69.9773V52.2344H71.7387V50.4688Z" fill="#616161"/>
<path d="M38.2726 52.2344H36.5112V54H38.2726V52.2344Z" fill="#616161"/>
<path d="M40.0341 52.2344H38.2727V54H40.0341V52.2344Z" fill="#616161"/>
<path d="M41.7955 52.2344H40.0342V54H41.7955V52.2344Z" fill="#616161"/>
<path d="M43.5568 52.2344H41.7954V54H43.5568V52.2344Z" fill="#616161"/>
<path d="M45.3182 52.2344H43.5569V54H45.3182V52.2344Z" fill="#616161"/>
<path d="M47.0795 52.2344H45.3181V54H47.0795V52.2344Z" fill="#616161"/>
<path d="M62.9318 52.2344H61.1704V54H62.9318V52.2344Z" fill="#616161"/>
<path d="M64.6932 52.2344H62.9319V54H64.6932V52.2344Z" fill="#616161"/>
<path d="M66.4545 52.2344H64.6931V54H66.4545V52.2344Z" fill="#616161"/>
<path d="M68.216 52.2344H66.4546V54H68.216V52.2344Z" fill="#616161"/>
<path d="M69.9772 52.2344H68.2158V54H69.9772V52.2344Z" fill="#616161"/>
<path d="M71.7387 52.2344H69.9773V54H71.7387V52.2344Z" fill="#616161"/>
<path d="M38.2726 54H36.5112V55.7656H38.2726V54Z" fill="#616161"/>
<path d="M40.0341 54H38.2727V55.7656H40.0341V54Z" fill="#616161"/>
<path d="M41.7955 54H40.0342V55.7656H41.7955V54Z" fill="#616161"/>
<path d="M43.5568 54H41.7954V55.7656H43.5568V54Z" fill="#616161"/>
<path d="M45.3182 54H43.5569V55.7656H45.3182V54Z" fill="#616161"/>
<path d="M47.0795 54H45.3181V55.7656H47.0795V54Z" fill="#616161"/>
<path d="M62.9318 54H61.1704V55.7656H62.9318V54Z" fill="#616161"/>
<path d="M64.6932 54H62.9319V55.7656H64.6932V54Z" fill="#616161"/>
<path d="M66.4545 54H64.6931V55.7656H66.4545V54Z" fill="#616161"/>
<path d="M68.216 54H66.4546V55.7656H68.216V54Z" fill="#616161"/>
<path d="M69.9772 54H68.2158V55.7656H69.9772V54Z" fill="#616161"/>
<path d="M71.7387 54H69.9773V55.7656H71.7387V54Z" fill="#616161"/>
<path d="M38.2726 55.7656H36.5112V57.5312H38.2726V55.7656Z" fill="#616161"/>
<path d="M40.0341 55.7656H38.2727V57.5312H40.0341V55.7656Z" fill="#616161"/>
<path d="M41.7955 55.7656H40.0342V57.5312H41.7955V55.7656Z" fill="#616161"/>
<path d="M43.5568 55.7656H41.7954V57.5312H43.5568V55.7656Z" fill="#616161"/>
<path d="M45.3182 55.7656H43.5569V57.5312H45.3182V55.7656Z" fill="#616161"/>
<path d="M47.0795 55.7656H45.3181V57.5312H47.0795V55.7656Z" fill="#616161"/>
<path d="M48.841 55.7656H47.0796V57.5312H48.841V55.7656Z" fill="#616161"/>
<path d="M61.1705 55.7656H59.4092V57.5312H61.1705V55.7656Z" fill="#616161"/>
<path d="M62.9318 55.7656H61.1704V57.5312H62.9318V55.7656Z" fill="#616161"/>
<path d="M64.6932 55.7656H62.9319V57.5312H64.6932V55.7656Z" fill="#616161"/>
<path d="M66.4545 55.7656H64.6931V57.5312H66.4545V55.7656Z" fill="#616161"/>
<path d="M68.216 55.7656H66.4546V57.5312H68.216V55.7656Z" fill="#616161"/>
<path d="M69.9772 55.7656H68.2158V57.5312H69.9772V55.7656Z" fill="#616161"/>
<path d="M71.7387 55.7656H69.9773V57.5312H71.7387V55.7656Z" fill="#616161"/>
<path d="M38.2726 57.5312H36.5112V59.2969H38.2726V57.5312Z" fill="#616161"/>
<path d="M40.0341 57.5312H38.2727V59.2969H40.0341V57.5312Z" fill="#616161"/>
<path d="M41.7955 57.5312H40.0342V59.2969H41.7955V57.5312Z" fill="#616161"/>
<path d="M43.5568 57.5312H41.7954V59.2969H43.5568V57.5312Z" fill="#616161"/>
<path d="M45.3182 57.5312H43.5569V59.2969H45.3182V57.5312Z" fill="#616161"/>
<path d="M47.0795 57.5312H45.3181V59.2969H47.0795V57.5312Z" fill="#616161"/>
<path d="M48.841 57.5312H47.0796V59.2969H48.841V57.5312Z" fill="#616161"/>
<path d="M61.1705 57.5312H59.4092V59.2969H61.1705V57.5312Z" fill="#616161"/>
<path d="M62.9318 57.5312H61.1704V59.2969H62.9318V57.5312Z" fill="#616161"/>
<path d="M64.6932 57.5312H62.9319V59.2969H64.6932V57.5312Z" fill="#616161"/>
<path d="M66.4545 57.5312H64.6931V59.2969H66.4545V57.5312Z" fill="#616161"/>
<path d="M68.216 57.5312H66.4546V59.2969H68.216V57.5312Z" fill="#616161"/>
<path d="M69.9772 57.5312H68.2158V59.2969H69.9772V57.5312Z" fill="#616161"/>
<path d="M71.7387 57.5312H69.9773V59.2969H71.7387V57.5312Z" fill="#616161"/>
<path d="M38.2726 59.2969H36.5112V61.0625H38.2726V59.2969Z" fill="#616161"/>
<path d="M40.0341 59.2969H38.2727V61.0625H40.0341V59.2969Z" fill="#616161"/>
<path d="M41.7955 59.2969H40.0342V61.0625H41.7955V59.2969Z" fill="#616161"/>
<path d="M43.5568 59.2969H41.7954V61.0625H43.5568V59.2969Z" fill="#616161"/>
<path d="M45.3182 59.2969H43.5569V61.0625H45.3182V59.2969Z" fill="#616161"/>
<path d="M47.0795 59.2969H45.3181V61.0625H47.0795V59.2969Z" fill="#616161"/>
<path d="M48.841 59.2969H47.0796V61.0625H48.841V59.2969Z" fill="#616161"/>
<path d="M50.6022 59.2969H48.8408V61.0625H50.6022V59.2969Z" fill="#616161"/>
<path d="M59.4091 59.2969H57.6477V61.0625H59.4091V59.2969Z" fill="#616161"/>
<path d="M61.1705 59.2969H59.4092V61.0625H61.1705V59.2969Z" fill="#616161"/>
<path d="M62.9318 59.2969H61.1704V61.0625H62.9318V59.2969Z" fill="#616161"/>
<path d="M64.6932 59.2969H62.9319V61.0625H64.6932V59.2969Z" fill="#616161"/>
<path d="M66.4545 59.2969H64.6931V61.0625H66.4545V59.2969Z" fill="#616161"/>
<path d="M68.216 59.2969H66.4546V61.0625H68.216V59.2969Z" fill="#616161"/>
<path d="M69.9772 59.2969H68.2158V61.0625H69.9772V59.2969Z" fill="#616161"/>
<path d="M71.7387 59.2969H69.9773V61.0625H71.7387V59.2969Z" fill="#616161"/>
<path d="M38.2726 61.0625H36.5112V62.8281H38.2726V61.0625Z" fill="#616161"/>
<path d="M40.0341 61.0625H38.2727V62.8281H40.0341V61.0625Z" fill="#616161"/>
<path d="M41.7955 61.0625H40.0342V62.8281H41.7955V61.0625Z" fill="#616161"/>
<path d="M43.5568 61.0625H41.7954V62.8281H43.5568V61.0625Z" fill="#616161"/>
<path d="M45.3182 61.0625H43.5569V62.8281H45.3182V61.0625Z" fill="#616161"/>
<path d="M47.0795 61.0625H45.3181V62.8281H47.0795V61.0625Z" fill="#616161"/>
<path d="M48.841 61.0625H47.0796V62.8281H48.841V61.0625Z" fill="#616161"/>
<path d="M50.6022 61.0625H48.8408V62.8281H50.6022V61.0625Z" fill="#616161"/>
<path d="M59.4091 61.0625H57.6477V62.8281H59.4091V61.0625Z" fill="#616161"/>
<path d="M61.1705 61.0625H59.4092V62.8281H61.1705V61.0625Z" fill="#616161"/>
<path d="M62.9318 61.0625H61.1704V62.8281H62.9318V61.0625Z" fill="#616161"/>
<path d="M64.6932 61.0625H62.9319V62.8281H64.6932V61.0625Z" fill="#616161"/>
<path d="M66.4545 61.0625H64.6931V62.8281H66.4545V61.0625Z" fill="#616161"/>
<path d="M68.216 61.0625H66.4546V62.8281H68.216V61.0625Z" fill="#616161"/>
<path d="M69.9772 61.0625H68.2158V62.8281H69.9772V61.0625Z" fill="#616161"/>
<path d="M71.7387 61.0625H69.9773V62.8281H71.7387V61.0625Z" fill="#616161"/>
<path d="M38.2726 62.8281H36.5112V64.5938H38.2726V62.8281Z" fill="#616161"/>
<path d="M40.0341 62.8281H38.2727V64.5938H40.0341V62.8281Z" fill="#616161"/>
<path d="M41.7955 62.8281H40.0342V64.5938H41.7955V62.8281Z" fill="#616161"/>
<path d="M43.5568 62.8281H41.7954V64.5938H43.5568V62.8281Z" fill="#616161"/>
<path d="M45.3182 62.8281H43.5569V64.5938H45.3182V62.8281Z" fill="#616161"/>
<path d="M47.0795 62.8281H45.3181V64.5938H47.0795V62.8281Z" fill="#616161"/>
<path d="M48.841 62.8281H47.0796V64.5938H48.841V62.8281Z" fill="#616161"/>
<path d="M50.6022 62.8281H48.8408V64.5938H50.6022V62.8281Z" fill="#616161"/>
<path d="M52.3637 62.8281H50.6023V64.5938H52.3637V62.8281Z" fill="#616161"/>
<path d="M57.6476 62.8281H55.8862V64.5938H57.6476V62.8281Z" fill="#616161"/>
<path d="M59.4091 62.8281H57.6477V64.5938H59.4091V62.8281Z" fill="#616161"/>
<path d="M61.1705 62.8281H59.4092V64.5938H61.1705V62.8281Z" fill="#616161"/>
<path d="M62.9318 62.8281H61.1704V64.5938H62.9318V62.8281Z" fill="#616161"/>
<path d="M64.6932 62.8281H62.9319V64.5938H64.6932V62.8281Z" fill="#616161"/>
<path d="M66.4545 62.8281H64.6931V64.5938H66.4545V62.8281Z" fill="#616161"/>
<path d="M68.216 62.8281H66.4546V64.5938H68.216V62.8281Z" fill="#616161"/>
<path d="M69.9772 62.8281H68.2158V64.5938H69.9772V62.8281Z" fill="#616161"/>
<path d="M71.7387 62.8281H69.9773V64.5938H71.7387V62.8281Z" fill="#616161"/>
<path d="M38.2726 64.5938H36.5112V66.3594H38.2726V64.5938Z" fill="#616161"/>
<path d="M40.0341 64.5938H38.2727V66.3594H40.0341V64.5938Z" fill="#616161"/>
<path d="M41.7955 64.5938H40.0342V66.3594H41.7955V64.5938Z" fill="#616161"/>
<path d="M43.5568 64.5938H41.7954V66.3594H43.5568V64.5938Z" fill="#616161"/>
<path d="M45.3182 64.5938H43.5569V66.3594H45.3182V64.5938Z" fill="#616161"/>
<path d="M47.0795 64.5938H45.3181V66.3594H47.0795V64.5938Z" fill="#616161"/>
<path d="M48.841 64.5938H47.0796V66.3594H48.841V64.5938Z" fill="#616161"/>
<path d="M50.6022 64.5938H48.8408V66.3594H50.6022V64.5938Z" fill="#616161"/>
<path d="M52.3637 64.5938H50.6023V66.3594H52.3637V64.5938Z" fill="#616161"/>
<path d="M57.6476 64.5938H55.8862V66.3594H57.6476V64.5938Z" fill="#616161"/>
<path d="M59.4091 64.5938H57.6477V66.3594H59.4091V64.5938Z" fill="#616161"/>
<path d="M61.1705 64.5938H59.4092V66.3594H61.1705V64.5938Z" fill="#616161"/>
<path d="M62.9318 64.5938H61.1704V66.3594H62.9318V64.5938Z" fill="#616161"/>
<path d="M64.6932 64.5938H62.9319V66.3594H64.6932V64.5938Z" fill="#616161"/>
<path d="M66.4545 64.5938H64.6931V66.3594H66.4545V64.5938Z" fill="#616161"/>
<path d="M68.216 64.5938H66.4546V66.3594H68.216V64.5938Z" fill="#616161"/>
<path d="M69.9772 64.5938H68.2158V66.3594H69.9772V64.5938Z" fill="#616161"/>
<path d="M71.7387 64.5938H69.9773V66.3594H71.7387V64.5938Z" fill="#616161"/>
<path d="M38.2726 66.3594H36.5112V68.125H38.2726V66.3594Z" fill="#616161"/>
<path d="M40.0341 66.3594H38.2727V68.125H40.0341V66.3594Z" fill="#616161"/>
<path d="M41.7955 66.3594H40.0342V68.125H41.7955V66.3594Z" fill="#616161"/>
<path d="M43.5568 66.3594H41.7954V68.125H43.5568V66.3594Z" fill="#616161"/>
<path d="M45.3182 66.3594H43.5569V68.125H45.3182V66.3594Z" fill="#616161"/>
<path d="M47.0795 66.3594H45.3181V68.125H47.0795V66.3594Z" fill="#616161"/>
<path d="M48.841 66.3594H47.0796V68.125H48.841V66.3594Z" fill="#616161"/>
<path d="M50.6022 66.3594H48.8408V68.125H50.6022V66.3594Z" fill="#616161"/>
<path d="M52.3637 66.3594H50.6023V68.125H52.3637V66.3594Z" fill="#616161"/>
<path d="M54.1251 66.3594H52.3638V68.125H54.1251V66.3594Z" fill="#616161"/>
<path d="M55.8864 66.3594H54.125V68.125H55.8864V66.3594Z" fill="#616161"/>
<path d="M57.6476 66.3594H55.8862V68.125H57.6476V66.3594Z" fill="#616161"/>
<path d="M59.4091 66.3594H57.6477V68.125H59.4091V66.3594Z" fill="#616161"/>
<path d="M61.1705 66.3594H59.4092V68.125H61.1705V66.3594Z" fill="#616161"/>
<path d="M62.9318 66.3594H61.1704V68.125H62.9318V66.3594Z" fill="#616161"/>
<path d="M64.6932 66.3594H62.9319V68.125H64.6932V66.3594Z" fill="#616161"/>
<path d="M66.4545 66.3594H64.6931V68.125H66.4545V66.3594Z" fill="#616161"/>
<path d="M68.216 66.3594H66.4546V68.125H68.216V66.3594Z" fill="#616161"/>
<path d="M69.9772 66.3594H68.2158V68.125H69.9772V66.3594Z" fill="#616161"/>
<path d="M71.7387 66.3594H69.9773V68.125H71.7387V66.3594Z" fill="#616161"/>
<path d="M38.2726 68.125H36.5112V69.8906H38.2726V68.125Z" fill="#616161"/>
<path d="M40.0341 68.125H38.2727V69.8906H40.0341V68.125Z" fill="#616161"/>
<path d="M41.7955 68.125H40.0342V69.8906H41.7955V68.125Z" fill="#616161"/>
<path d="M43.5568 68.125H41.7954V69.8906H43.5568V68.125Z" fill="#616161"/>
<path d="M45.3182 68.125H43.5569V69.8906H45.3182V68.125Z" fill="#616161"/>
<path d="M47.0795 68.125H45.3181V69.8906H47.0795V68.125Z" fill="#616161"/>
<path d="M48.841 68.125H47.0796V69.8906H48.841V68.125Z" fill="#616161"/>
<path d="M50.6022 68.125H48.8408V69.8906H50.6022V68.125Z" fill="#616161"/>
<path d="M52.3637 68.125H50.6023V69.8906H52.3637V68.125Z" fill="#616161"/>
<path d="M54.1251 68.125H52.3638V69.8906H54.1251V68.125Z" fill="#616161"/>
<path d="M55.8864 68.125H54.125V69.8906H55.8864V68.125Z" fill="#616161"/>
<path d="M57.6476 68.125H55.8862V69.8906H57.6476V68.125Z" fill="#616161"/>
<path d="M59.4091 68.125H57.6477V69.8906H59.4091V68.125Z" fill="#616161"/>
<path d="M61.1705 68.125H59.4092V69.8906H61.1705V68.125Z" fill="#616161"/>
<path d="M64.6932 68.125H62.9319V69.8906H64.6932V68.125Z" fill="#616161"/>
<path d="M68.216 68.125H66.4546V69.8906H68.216V68.125Z" fill="#616161"/>
<path d="M69.9772 68.125H68.2158V69.8906H69.9772V68.125Z" fill="#616161"/>
<path d="M71.7387 68.125H69.9773V69.8906H71.7387V68.125Z" fill="#616161"/>
<path d="M38.2726 69.8906H36.5112V71.6562H38.2726V69.8906Z" fill="#616161"/>
<path d="M40.0341 69.8906H38.2727V71.6562H40.0341V69.8906Z" fill="#616161"/>
<path d="M41.7955 69.8906H40.0342V71.6562H41.7955V69.8906Z" fill="#616161"/>
<path d="M43.5568 69.8906H41.7954V71.6562H43.5568V69.8906Z" fill="#616161"/>
<path d="M45.3182 69.8906H43.5569V71.6562H45.3182V69.8906Z" fill="#616161"/>
<path d="M47.0795 69.8906H45.3181V71.6562H47.0795V69.8906Z" fill="#616161"/>
<path d="M48.841 69.8906H47.0796V71.6562H48.841V69.8906Z" fill="#616161"/>
<path d="M50.6022 69.8906H48.8408V71.6562H50.6022V69.8906Z" fill="#616161"/>
<path d="M52.3637 69.8906H50.6023V71.6562H52.3637V69.8906Z" fill="#616161"/>
<path d="M54.1251 69.8906H52.3638V71.6562H54.1251V69.8906Z" fill="#616161"/>
<path d="M55.8864 69.8906H54.125V71.6562H55.8864V69.8906Z" fill="#616161"/>
<path d="M57.6476 69.8906H55.8862V71.6562H57.6476V69.8906Z" fill="#616161"/>
<path d="M59.4091 69.8906H57.6477V71.6562H59.4091V69.8906Z" fill="#616161"/>
<path d="M61.1705 69.8906H59.4092V71.6562H61.1705V69.8906Z" fill="#616161"/>
<path d="M68.216 69.8906H66.4546V71.6562H68.216V69.8906Z" fill="#616161"/>
<path d="M69.9772 69.8906H68.2158V71.6562H69.9772V69.8906Z" fill="#616161"/>
<path d="M71.7387 69.8906H69.9773V71.6562H71.7387V69.8906Z" fill="#616161"/>
<path d="M38.2726 71.6562H36.5112V73.4219H38.2726V71.6562Z" fill="#616161"/>
<path d="M40.0341 71.6562H38.2727V73.4219H40.0341V71.6562Z" fill="#616161"/>
<path d="M41.7955 71.6562H40.0342V73.4219H41.7955V71.6562Z" fill="#616161"/>
<path d="M43.5568 71.6562H41.7954V73.4219H43.5568V71.6562Z" fill="#616161"/>
<path d="M45.3182 71.6562H43.5569V73.4219H45.3182V71.6562Z" fill="#616161"/>
<path d="M47.0795 71.6562H45.3181V73.4219H47.0795V71.6562Z" fill="#616161"/>
<path d="M48.841 71.6562H47.0796V73.4219H48.841V71.6562Z" fill="#616161"/>
<path d="M50.6022 71.6562H48.8408V73.4219H50.6022V71.6562Z" fill="#616161"/>
<path d="M52.3637 71.6562H50.6023V73.4219H52.3637V71.6562Z" fill="#616161"/>
<path d="M54.1251 71.6562H52.3638V73.4219H54.1251V71.6562Z" fill="#616161"/>
<path d="M55.8864 71.6562H54.125V73.4219H55.8864V71.6562Z" fill="#616161"/>
<path d="M57.6476 71.6562H55.8862V73.4219H57.6476V71.6562Z" fill="#616161"/>
<path d="M59.4091 71.6562H57.6477V73.4219H59.4091V71.6562Z" fill="#616161"/>
<path d="M61.1705 71.6562H59.4092V73.4219H61.1705V71.6562Z" fill="#616161"/>
<path d="M64.6932 71.6562H62.9319V73.4219H64.6932V71.6562Z" fill="#616161"/>
<path d="M68.216 71.6562H66.4546V73.4219H68.216V71.6562Z" fill="#616161"/>
<path d="M69.9772 71.6562H68.2158V73.4219H69.9772V71.6562Z" fill="#616161"/>
<path d="M71.7387 71.6562H69.9773V73.4219H71.7387V71.6562Z" fill="#616161"/>
<path d="M38.2726 73.4219H36.5112V75.1875H38.2726V73.4219Z" fill="#616161"/>
<path d="M40.0341 73.4219H38.2727V75.1875H40.0341V73.4219Z" fill="#616161"/>
<path d="M41.7955 73.4219H40.0342V75.1875H41.7955V73.4219Z" fill="#616161"/>
<path d="M43.5568 73.4219H41.7954V75.1875H43.5568V73.4219Z" fill="#616161"/>
<path d="M45.3182 73.4219H43.5569V75.1875H45.3182V73.4219Z" fill="#616161"/>
<path d="M47.0795 73.4219H45.3181V75.1875H47.0795V73.4219Z" fill="#616161"/>
<path d="M48.841 73.4219H47.0796V75.1875H48.841V73.4219Z" fill="#616161"/>
<path d="M50.6022 73.4219H48.8408V75.1875H50.6022V73.4219Z" fill="#616161"/>
<path d="M52.3637 73.4219H50.6023V75.1875H52.3637V73.4219Z" fill="#616161"/>
<path d="M54.1251 73.4219H52.3638V75.1875H54.1251V73.4219Z" fill="#616161"/>
<path d="M55.8864 73.4219H54.125V75.1875H55.8864V73.4219Z" fill="#616161"/>
<path d="M57.6476 73.4219H55.8862V75.1875H57.6476V73.4219Z" fill="#616161"/>
<path d="M59.4091 73.4219H57.6477V75.1875H59.4091V73.4219Z" fill="#616161"/>
<path d="M61.1705 73.4219H59.4092V75.1875H61.1705V73.4219Z" fill="#616161"/>
<path d="M64.6932 73.4219H62.9319V75.1875H64.6932V73.4219Z" fill="#616161"/>
<path d="M68.216 73.4219H66.4546V75.1875H68.216V73.4219Z" fill="#616161"/>
<path d="M69.9772 73.4219H68.2158V75.1875H69.9772V73.4219Z" fill="#616161"/>
<path d="M71.7387 73.4219H69.9773V75.1875H71.7387V73.4219Z" fill="#616161"/>
<path d="M38.2726 75.1875H36.5112V76.9531H38.2726V75.1875Z" fill="#616161"/>
<path d="M40.0341 75.1875H38.2727V76.9531H40.0341V75.1875Z" fill="#616161"/>
<path d="M41.7955 75.1875H40.0342V76.9531H41.7955V75.1875Z" fill="#616161"/>
<path d="M43.5568 75.1875H41.7954V76.9531H43.5568V75.1875Z" fill="#616161"/>
<path d="M45.3182 75.1875H43.5569V76.9531H45.3182V75.1875Z" fill="#616161"/>
<path d="M47.0795 75.1875H45.3181V76.9531H47.0795V75.1875Z" fill="#616161"/>
<path d="M48.841 75.1875H47.0796V76.9531H48.841V75.1875Z" fill="#616161"/>
<path d="M50.6022 75.1875H48.8408V76.9531H50.6022V75.1875Z" fill="#616161"/>
<path d="M52.3637 75.1875H50.6023V76.9531H52.3637V75.1875Z" fill="#616161"/>
<path d="M54.1251 75.1875H52.3638V76.9531H54.1251V75.1875Z" fill="#616161"/>
<path d="M55.8864 75.1875H54.125V76.9531H55.8864V75.1875Z" fill="#616161"/>
<path d="M57.6476 75.1875H55.8862V76.9531H57.6476V75.1875Z" fill="#616161"/>
<path d="M59.4091 75.1875H57.6477V76.9531H59.4091V75.1875Z" fill="#616161"/>
<path d="M61.1705 75.1875H59.4092V76.9531H61.1705V75.1875Z" fill="#616161"/>
<path d="M62.9318 75.1875H61.1704V76.9531H62.9318V75.1875Z" fill="#616161"/>
<path d="M66.4545 75.1875H64.6931V76.9531H66.4545V75.1875Z" fill="#616161"/>
<path d="M68.216 75.1875H66.4546V76.9531H68.216V75.1875Z" fill="#616161"/>
<path d="M69.9772 75.1875H68.2158V76.9531H69.9772V75.1875Z" fill="#616161"/>
<path d="M71.7387 75.1875H69.9773V76.9531H71.7387V75.1875Z" fill="#616161"/>
<path d="M40.0341 76.9531H38.2727V78.7188H40.0341V76.9531Z" fill="#616161"/>
<path d="M41.7955 76.9531H40.0342V78.7188H41.7955V76.9531Z" fill="#616161"/>
<path d="M43.5568 76.9531H41.7954V78.7188H43.5568V76.9531Z" fill="#616161"/>
<path d="M45.3182 76.9531H43.5569V78.7188H45.3182V76.9531Z" fill="#616161"/>
<path d="M47.0795 76.9531H45.3181V78.7188H47.0795V76.9531Z" fill="#616161"/>
<path d="M48.841 76.9531H47.0796V78.7188H48.841V76.9531Z" fill="#616161"/>
<path d="M50.6022 76.9531H48.8408V78.7188H50.6022V76.9531Z" fill="#616161"/>
<path d="M52.3637 76.9531H50.6023V78.7188H52.3637V76.9531Z" fill="#616161"/>
<path d="M54.1251 76.9531H52.3638V78.7188H54.1251V76.9531Z" fill="#616161"/>
<path d="M55.8864 76.9531H54.125V78.7188H55.8864V76.9531Z" fill="#616161"/>
<path d="M57.6476 76.9531H55.8862V78.7188H57.6476V76.9531Z" fill="#616161"/>
<path d="M59.4091 76.9531H57.6477V78.7188H59.4091V76.9531Z" fill="#616161"/>
<path d="M61.1705 76.9531H59.4092V78.7188H61.1705V76.9531Z" fill="#616161"/>
<path d="M62.9318 76.9531H61.1704V78.7188H62.9318V76.9531Z" fill="#616161"/>
<path d="M64.6932 76.9531H62.9319V78.7188H64.6932V76.9531Z" fill="#616161"/>
<path d="M66.4545 76.9531H64.6931V78.7188H66.4545V76.9531Z" fill="#616161"/>
<path d="M68.216 76.9531H66.4546V78.7188H68.216V76.9531Z" fill="#616161"/>
<path d="M69.9772 76.9531H68.2158V78.7188H69.9772V76.9531Z" fill="#616161"/>
<path d="M41.7955 78.7188H40.0342V80.4844H41.7955V78.7188Z" fill="#616161"/>
<path d="M43.5568 78.7188H41.7954V80.4844H43.5568V78.7188Z" fill="#616161"/>
<path d="M45.3182 78.7188H43.5569V80.4844H45.3182V78.7188Z" fill="#616161"/>
<path d="M47.0795 78.7188H45.3181V80.4844H47.0795V78.7188Z" fill="#616161"/>
<path d="M48.841 78.7188H47.0796V80.4844H48.841V78.7188Z" fill="#616161"/>
<path d="M50.6022 78.7188H48.8408V80.4844H50.6022V78.7188Z" fill="#616161"/>
<path d="M52.3637 78.7188H50.6023V80.4844H52.3637V78.7188Z" fill="#616161"/>
<path d="M54.1251 78.7188H52.3638V80.4844H54.1251V78.7188Z" fill="#616161"/>
<path d="M55.8864 78.7188H54.125V80.4844H55.8864V78.7188Z" fill="#616161"/>
<path d="M57.6476 78.7188H55.8862V80.4844H57.6476V78.7188Z" fill="#616161"/>
<path d="M59.4091 78.7188H57.6477V80.4844H59.4091V78.7188Z" fill="#616161"/>
<path d="M61.1705 78.7188H59.4092V80.4844H61.1705V78.7188Z" fill="#616161"/>
<path d="M62.9318 78.7188H61.1704V80.4844H62.9318V78.7188Z" fill="#616161"/>
<path d="M64.6932 78.7188H62.9319V80.4844H64.6932V78.7188Z" fill="#616161"/>
<path d="M66.4545 78.7188H64.6931V80.4844H66.4545V78.7188Z" fill="#616161"/>
<path d="M68.216 78.7188H66.4546V80.4844H68.216V78.7188Z" fill="#616161"/>
</svg>
